<svg width="2335.000000" height="60.000000" viewBox="0 0 2335 60" fill="none" xmlns="http://www.w3.org/2000/svg" xmlns:xlink="http://www.w3.org/1999/xlink">
	<desc>
			Created with Pixso.
	</desc>
	<defs/>
	<rect id="running line" width="2335.000000" height="60.000000" fill="#F54932" fill-opacity="1.000000"/>
	<path id="Дело помощи утопающим — дело рук самих утопающих!" d="M28.0559 36.501C28.0559 36.6917 27.9753 37.6303 27.8139 39.317C27.6526 41.0037 27.5646 41.869 27.5499 41.913L26.1419 41.913C26.1126 41.3703 26.0466 40.5783 25.9439 39.537C25.8559 38.4957 25.7899 37.9237 25.7459 37.821L15.6919 37.821C15.6333 37.8797 15.4866 38.437 15.2519 39.493C15.0319 40.549 14.8633 41.363 14.7459 41.935L13.3159 41.935C13.3306 41.3483 13.3599 40.4683 13.4039 39.295C13.4626 38.1363 13.5139 37.205 13.5579 36.501L15.1639 36.501C15.5159 36.061 15.8973 35.3423 16.3079 34.345C16.7333 33.333 17.1146 31.969 17.4519 30.253C17.7893 28.5223 17.9579 26.4983 17.9579 24.181L17.9579 22.839L15.6919 22.575L15.6919 21.475L28.1439 21.475L28.1439 22.575L26.0759 22.839L26.0759 36.501L28.0559 36.501ZM19.3219 24.313C19.3366 26.3957 19.2119 28.2877 18.9479 29.989C18.6839 31.6757 18.3686 33.069 18.0019 34.169C17.6499 35.269 17.3273 36.0463 17.0339 36.501L23.7439 36.501L23.7659 22.751L19.3219 22.751L19.3219 24.313ZM31.9142 22.839L30.1102 22.575L30.1102 21.475L41.3082 21.475L41.6162 24.885L40.3622 24.885L39.7242 22.751L34.2682 22.619L34.2682 28.823L37.9422 28.757L38.2502 26.931L39.4602 26.931L39.4602 31.991L38.2502 31.991L37.9422 30.099L34.2682 30.033L34.2682 36.589L40.4722 36.369L41.6382 33.597L42.9362 33.993L42.2982 37.821L30.0882 37.821L30.0882 36.743L31.9142 36.523L31.9142 22.839ZM49.9183 24.819C49.9183 27.459 49.7643 29.791 49.4562 31.815C49.1629 33.8243 48.7156 35.3497 48.1143 36.391C47.8063 36.919 47.4543 37.3077 47.0583 37.557C46.6623 37.8063 46.1929 37.931 45.6502 37.931C44.9463 37.931 44.4256 37.8943 44.0882 37.821L43.9342 36.039C44.2716 36.083 44.8216 36.105 45.5843 36.105C45.8629 36.105 46.1049 36.0463 46.3102 35.929C46.5156 35.797 46.7062 35.577 46.8823 35.269C47.9969 33.5383 48.5542 29.9743 48.5542 24.577L48.5542 22.839L46.0243 22.575L46.0243 21.475L58.7402 21.475L58.7402 22.575L56.6943 22.839L56.6943 36.523L58.8722 36.743L58.8722 37.821L52.0963 37.821L52.0963 36.743L54.3623 36.501L54.3843 22.839L49.9183 22.839L49.9183 24.819ZM67.2835 38.063C65.7875 38.063 64.5188 37.7183 63.4775 37.029C62.4508 36.3397 61.6735 35.3717 61.1455 34.125C60.6175 32.8637 60.3535 31.4043 60.3535 29.747C60.3535 28.0603 60.6688 26.579 61.2995 25.303C61.9448 24.027 62.8248 23.0443 63.9395 22.355C65.0541 21.651 66.3081 21.299 67.7015 21.299C69.9895 21.299 71.7348 22.025 72.9375 23.477C74.1548 24.9143 74.7635 26.909 74.7635 29.461C74.7635 31.177 74.4335 32.6877 73.7735 33.993C73.1281 35.2837 72.2335 36.2883 71.0895 37.007C69.9601 37.711 68.6915 38.063 67.2835 38.063ZM67.5695 22.443C66.1468 22.443 65.0248 23.0663 64.2035 24.313C63.3821 25.545 62.9715 27.3563 62.9715 29.747C62.9715 31.947 63.3675 33.6923 64.1595 34.983C64.9661 36.259 66.0881 36.897 67.5255 36.897C68.9335 36.897 70.0481 36.259 70.8695 34.983C71.7055 33.707 72.1235 31.8737 72.1235 29.483C72.1235 27.2683 71.7275 25.545 70.9355 24.313C70.1435 23.0663 69.0215 22.443 67.5695 22.443ZM97.1811 21.475L97.1811 22.575L95.3111 22.861L95.3111 36.501L97.3571 36.743L97.3571 37.821L91.1531 37.821L91.1531 36.743L92.9791 36.501L92.9791 22.773L85.9391 22.773L85.9391 36.523L87.9851 36.743L87.9851 37.821L81.8251 37.821L81.8251 36.743L83.6071 36.523L83.6071 22.839L81.7371 22.575L81.7371 21.475L97.1811 21.475ZM105.891 38.063C104.395 38.063 103.126 37.7183 102.085 37.029C101.058 36.3397 100.281 35.3717 99.7529 34.125C99.2249 32.8637 98.9609 31.4043 98.9609 29.747C98.9609 28.0603 99.2762 26.579 99.9069 25.303C100.552 24.027 101.432 23.0443 102.547 22.355C103.662 21.651 104.916 21.299 106.309 21.299C108.597 21.299 110.342 22.025 111.545 23.477C112.762 24.9143 113.371 26.909 113.371 29.461C113.371 31.177 113.041 32.6877 112.381 33.993C111.736 35.2837 110.841 36.2883 109.697 37.007C108.568 37.711 107.299 38.063 105.891 38.063ZM106.177 22.443C104.754 22.443 103.632 23.0663 102.811 24.313C101.99 25.545 101.579 27.3563 101.579 29.747C101.579 31.947 101.975 33.6923 102.767 34.983C103.574 36.259 104.696 36.897 106.133 36.897C107.541 36.897 108.656 36.259 109.477 34.983C110.313 33.707 110.731 31.8737 110.731 29.483C110.731 27.2683 110.335 25.545 109.543 24.313C108.751 23.0663 107.629 22.443 106.177 22.443ZM117.698 22.839L115.3 22.575L115.3 21.475L121.13 21.475L124.232 31.375L124.958 34.169L125.618 31.375L128.698 21.475L134.484 21.475L134.484 22.575L132.064 22.839L133.824 36.501L135.738 36.743L135.738 37.821L129.402 37.821L129.402 36.743L131.404 36.523L130.414 26.645L129.952 22.399L129.028 25.567L125.354 37.073L123.924 37.073L120.36 26.535L119.062 22.377L118.666 26.645L117.786 36.523L119.964 36.743L119.964 37.821L114.222 37.821L114.222 36.743L116.092 36.523L117.698 22.839ZM143.553 38.063C142.057 38.063 140.788 37.7183 139.747 37.029C138.72 36.3397 137.943 35.3717 137.415 34.125C136.887 32.8637 136.623 31.4043 136.623 29.747C136.623 28.0603 136.938 26.579 137.569 25.303C138.214 24.027 139.094 23.0443 140.209 22.355C141.324 21.651 142.578 21.299 143.971 21.299C146.259 21.299 148.004 22.025 149.207 23.477C150.424 24.9143 151.033 26.909 151.033 29.461C151.033 31.177 150.703 32.6877 150.043 33.993C149.398 35.2837 148.503 36.2883 147.359 37.007C146.23 37.711 144.961 38.063 143.553 38.063ZM143.839 22.443C142.416 22.443 141.294 23.0663 140.473 24.313C139.652 25.545 139.241 27.3563 139.241 29.747C139.241 31.947 139.637 33.6923 140.429 34.983C141.236 36.259 142.358 36.897 143.795 36.897C145.203 36.897 146.318 36.259 147.139 34.983C147.975 33.707 148.393 31.8737 148.393 29.483C148.393 27.2683 147.997 25.545 147.205 24.313C146.413 23.0663 145.291 22.443 143.839 22.443ZM175.666 36.501C175.475 38.6277 175.277 40.4317 175.072 41.913L173.664 41.913C173.635 41.3703 173.583 40.5783 173.51 39.537C173.437 38.5103 173.378 37.9383 173.334 37.821L152.588 37.821L152.588 36.743L154.656 36.523L154.656 22.839L152.83 22.575L152.83 21.475L158.924 21.475L158.924 22.575L156.966 22.839L156.966 36.523L162.752 36.523L162.752 22.839L161.058 22.575L161.058 21.475L166.734 21.475L166.734 22.575L165.018 22.839L165.018 36.523L170.694 36.523L170.694 22.839L169.044 22.575L169.044 21.475L174.83 21.475L174.83 22.575L173.026 22.839L173.026 36.501L175.666 36.501ZM183.593 21.475L183.593 22.575L181.437 22.839L181.437 33.883L183.241 31.177L189.577 23.433L189.577 22.839L187.619 22.575L187.619 21.475L193.669 21.475L193.669 22.575L191.909 22.839L191.909 36.523L193.779 36.743L193.779 37.821L187.641 37.821L187.641 36.743L189.577 36.523L189.577 25.325L187.949 27.877L181.437 35.731L181.437 36.523L183.505 36.743L183.505 37.821L177.301 37.821L177.301 36.743L179.127 36.523L179.127 22.839L177.367 22.575L177.367 21.475L183.593 21.475ZM208.432 34.433C208.373 34.5503 208.197 34.9683 207.904 35.687C207.611 36.391 207.193 36.963 206.65 37.403C206.107 37.843 205.477 38.063 204.758 38.063C204.377 38.063 203.995 38.0263 203.614 37.953C203.247 37.8943 202.947 37.8137 202.712 37.711L202.712 36.149L204.274 36.171C204.949 36.171 205.447 36.039 205.77 35.775C206.093 35.4963 206.371 35.005 206.606 34.301L201.062 22.839L199.874 22.575L199.874 21.475L205.814 21.475L205.814 22.575L203.658 22.839L207.2 30.495L207.86 32.497L208.586 30.473L211.38 22.839L209.51 22.575L209.51 21.475L214.218 21.475L214.218 22.575L213.074 22.839L208.432 34.433ZM220.243 22.641L216.459 22.773L215.689 27.371L214.237 27.371L214.611 21.475L228.317 21.475L228.581 27.371L227.195 27.371L226.469 22.773L222.663 22.641L222.663 36.523L225.787 36.743L225.787 37.821L217.383 37.821L217.383 36.743L220.243 36.523L220.243 22.641ZM236.774 38.063C235.278 38.063 234.009 37.7183 232.968 37.029C231.941 36.3397 231.164 35.3717 230.636 34.125C230.108 32.8637 229.844 31.4043 229.844 29.747C229.844 28.0603 230.159 26.579 230.79 25.303C231.435 24.027 232.315 23.0443 233.43 22.355C234.544 21.651 235.798 21.299 237.192 21.299C239.48 21.299 241.225 22.025 242.428 23.477C243.645 24.9143 244.254 26.909 244.254 29.461C244.254 31.177 243.924 32.6877 243.264 33.993C242.618 35.2837 241.724 36.2883 240.58 37.007C239.45 37.711 238.182 38.063 236.774 38.063ZM237.06 22.443C235.637 22.443 234.515 23.0663 233.694 24.313C232.872 25.545 232.462 27.3563 232.462 29.747C232.462 31.947 232.858 33.6923 233.65 34.983C234.456 36.259 235.578 36.897 237.016 36.897C238.424 36.897 239.538 36.259 240.36 34.983C241.196 33.707 241.614 31.8737 241.614 29.483C241.614 27.2683 241.218 25.545 240.426 24.313C239.634 23.0663 238.512 22.443 237.06 22.443ZM261.451 21.475L261.451 22.575L259.581 22.861L259.581 36.501L261.627 36.743L261.627 37.821L255.423 37.821L255.423 36.743L257.249 36.501L257.249 22.773L250.209 22.773L250.209 36.523L252.255 36.743L252.255 37.821L246.095 37.821L246.095 36.743L247.877 36.523L247.877 22.839L246.007 22.575L246.007 21.475L261.451 21.475ZM268.862 21.343L271.282 21.343L276.628 36.523L277.992 36.743L277.992 37.821L272.184 37.821L272.184 36.743L274.01 36.523L272.976 33.267L266.552 33.267L265.518 36.523L267.41 36.743L267.41 37.821L262.196 37.821L262.196 36.743L263.56 36.523L268.862 21.343ZM270.248 24.863L269.698 22.927L269.17 24.907L266.948 31.969L272.558 31.969L270.248 24.863ZM286.515 28.757C286.661 27.217 287.079 25.8823 287.769 24.753C288.458 23.6237 289.324 22.7657 290.365 22.179C291.421 21.5777 292.558 21.2843 293.775 21.299C295.212 21.299 296.437 21.6363 297.449 22.311C298.476 22.971 299.253 23.9023 299.781 25.105C300.309 26.293 300.573 27.679 300.573 29.263C300.573 31.0377 300.258 32.5923 299.627 33.927C299.011 35.247 298.16 36.259 297.075 36.963C296.004 37.667 294.802 38.019 293.467 38.019C291.986 38.019 290.724 37.6963 289.683 37.051C288.642 36.391 287.85 35.467 287.307 34.279C286.764 33.0763 286.486 31.6757 286.471 30.077L282.951 30.077L282.951 36.501L284.843 36.743L284.843 37.821L278.793 37.821L278.793 36.743L280.597 36.501L280.597 22.839L278.837 22.575L278.837 21.475L284.755 21.475L284.755 22.575L282.929 22.839L282.929 28.757L286.515 28.757ZM293.621 22.487C292.228 22.487 291.113 23.0957 290.277 24.313C289.441 25.5303 289.023 27.3563 289.023 29.791C289.023 31.9177 289.419 33.619 290.211 34.895C291.018 36.171 292.147 36.809 293.599 36.809C294.992 36.809 296.07 36.193 296.833 34.961C297.61 33.7143 297.999 31.881 297.999 29.461C297.999 27.3343 297.618 25.6403 296.855 24.379C296.092 23.1177 295.014 22.487 293.621 22.487ZM325.283 36.501C325.092 38.6277 324.894 40.4317 324.689 41.913L323.281 41.913C323.252 41.3703 323.2 40.5783 323.127 39.537C323.054 38.5103 322.995 37.9383 322.951 37.821L302.205 37.821L302.205 36.743L304.273 36.523L304.273 22.839L302.447 22.575L302.447 21.475L308.541 21.475L308.541 22.575L306.583 22.839L306.583 36.523L312.369 36.523L312.369 22.839L310.675 22.575L310.675 21.475L316.351 21.475L316.351 22.575L314.635 22.839L314.635 36.523L320.311 36.523L320.311 22.839L318.661 22.575L318.661 21.475L324.447 21.475L324.447 22.575L322.643 22.839L322.643 36.501L325.283 36.501ZM333.21 21.475L333.21 22.575L331.054 22.839L331.054 33.883L332.858 31.177L339.194 23.433L339.194 22.839L337.236 22.575L337.236 21.475L343.286 21.475L343.286 22.575L341.526 22.839L341.526 36.523L343.396 36.743L343.396 37.821L337.258 37.821L337.258 36.743L339.194 36.523L339.194 25.325L337.566 27.877L331.054 35.731L331.054 36.523L333.122 36.743L333.122 37.821L326.918 37.821L326.918 36.743L328.744 36.523L328.744 22.839L326.984 22.575L326.984 21.475L333.21 21.475ZM348.01 22.839L345.612 22.575L345.612 21.475L351.442 21.475L354.544 31.375L355.27 34.169L355.93 31.375L359.01 21.475L364.796 21.475L364.796 22.575L362.376 22.839L364.136 36.501L366.05 36.743L366.05 37.821L359.714 37.821L359.714 36.743L361.716 36.523L360.726 26.645L360.264 22.399L359.34 25.567L355.666 37.073L354.236 37.073L350.672 26.535L349.374 22.377L348.978 26.645L348.098 36.523L350.276 36.743L350.276 37.821L344.534 37.821L344.534 36.743L346.404 36.523L348.01 22.839ZM395.014 31.595L373.872 31.595L373.872 29.967L395.014 29.967L395.014 31.595ZM417.825 36.501C417.825 36.6917 417.745 37.6303 417.583 39.317C417.422 41.0037 417.334 41.869 417.319 41.913L415.911 41.913C415.882 41.3703 415.816 40.5783 415.713 39.537C415.625 38.4957 415.559 37.9237 415.515 37.821L405.461 37.821C405.403 37.8797 405.256 38.437 405.021 39.493C404.801 40.549 404.633 41.363 404.515 41.935L403.085 41.935C403.1 41.3483 403.129 40.4683 403.173 39.295C403.232 38.1363 403.283 37.205 403.327 36.501L404.933 36.501C405.285 36.061 405.667 35.3423 406.077 34.345C406.503 33.333 406.884 31.969 407.221 30.253C407.559 28.5223 407.727 26.4983 407.727 24.181L407.727 22.839L405.461 22.575L405.461 21.475L417.913 21.475L417.913 22.575L415.845 22.839L415.845 36.501L417.825 36.501ZM409.091 24.313C409.106 26.3957 408.981 28.2877 408.717 29.989C408.453 31.6757 408.138 33.069 407.771 34.169C407.419 35.269 407.097 36.0463 406.803 36.501L413.513 36.501L413.535 22.751L409.091 22.751L409.091 24.313ZM421.684 22.839L419.88 22.575L419.88 21.475L431.078 21.475L431.386 24.885L430.132 24.885L429.494 22.751L424.038 22.619L424.038 28.823L427.712 28.757L428.02 26.931L429.23 26.931L429.23 31.991L428.02 31.991L427.712 30.099L424.038 30.033L424.038 36.589L430.242 36.369L431.408 33.597L432.706 33.993L432.068 37.821L419.858 37.821L419.858 36.743L421.684 36.523L421.684 22.839ZM439.688 24.819C439.688 27.459 439.534 29.791 439.226 31.815C438.932 33.8243 438.485 35.3497 437.884 36.391C437.576 36.919 437.224 37.3077 436.828 37.557C436.432 37.8063 435.962 37.931 435.42 37.931C434.716 37.931 434.195 37.8943 433.858 37.821L433.704 36.039C434.041 36.083 434.591 36.105 435.354 36.105C435.632 36.105 435.874 36.0463 436.08 35.929C436.285 35.797 436.476 35.577 436.652 35.269C437.766 33.5383 438.324 29.9743 438.324 24.577L438.324 22.839L435.794 22.575L435.794 21.475L448.51 21.475L448.51 22.575L446.464 22.839L446.464 36.523L448.642 36.743L448.642 37.821L441.866 37.821L441.866 36.743L444.132 36.501L444.154 22.839L439.688 22.839L439.688 24.819ZM457.053 38.063C455.557 38.063 454.288 37.7183 453.247 37.029C452.22 36.3397 451.443 35.3717 450.915 34.125C450.387 32.8637 450.123 31.4043 450.123 29.747C450.123 28.0603 450.438 26.579 451.069 25.303C451.714 24.027 452.594 23.0443 453.709 22.355C454.824 21.651 456.078 21.299 457.471 21.299C459.759 21.299 461.504 22.025 462.707 23.477C463.924 24.9143 464.533 26.909 464.533 29.461C464.533 31.177 464.203 32.6877 463.543 33.993C462.898 35.2837 462.003 36.2883 460.859 37.007C459.73 37.711 458.461 38.063 457.053 38.063ZM457.339 22.443C455.916 22.443 454.794 23.0663 453.973 24.313C453.152 25.545 452.741 27.3563 452.741 29.747C452.741 31.947 453.137 33.6923 453.929 34.983C454.736 36.259 455.858 36.897 457.295 36.897C458.703 36.897 459.818 36.259 460.639 34.983C461.475 33.707 461.893 31.8737 461.893 29.483C461.893 27.2683 461.497 25.545 460.705 24.313C459.913 23.0663 458.791 22.443 457.339 22.443ZM473.355 22.839L471.639 22.575L471.639 21.475L474.565 21.475C475.093 21.475 475.613 21.453 476.127 21.409C476.919 21.3503 477.667 21.321 478.371 21.321C480.497 21.3357 482.001 21.7317 482.881 22.509C483.761 23.2863 484.201 24.4597 484.201 26.029C484.201 27.2023 483.929 28.2217 483.387 29.087C482.844 29.9523 482.089 30.6123 481.121 31.067C480.167 31.5217 479.067 31.749 477.821 31.749C477.395 31.749 476.963 31.7417 476.523 31.727C476.083 31.6977 475.811 31.6757 475.709 31.661L475.709 36.501L478.723 36.743L478.723 37.821L471.529 37.821L471.529 36.743L473.355 36.523L473.355 22.839ZM475.709 30.451C476.119 30.5243 476.823 30.561 477.821 30.561C478.979 30.561 479.918 30.209 480.637 29.505C481.37 28.801 481.737 27.6497 481.737 26.051C481.737 24.7897 481.421 23.8877 480.791 23.345C480.16 22.7877 479.177 22.509 477.843 22.509C477.373 22.509 476.875 22.5383 476.347 22.597C476.024 22.6263 475.811 22.641 475.709 22.641L475.709 30.451ZM493.186 34.433C493.127 34.5503 492.951 34.9683 492.658 35.687C492.364 36.391 491.946 36.963 491.404 37.403C490.861 37.843 490.23 38.063 489.512 38.063C489.13 38.063 488.749 38.0263 488.368 37.953C488.001 37.8943 487.7 37.8137 487.466 37.711L487.466 36.149L489.028 36.171C489.702 36.171 490.201 36.039 490.524 35.775C490.846 35.4963 491.125 35.005 491.36 34.301L485.816 22.839L484.628 22.575L484.628 21.475L490.568 21.475L490.568 22.575L488.412 22.839L491.954 30.495L492.614 32.497L493.34 30.473L496.134 22.839L494.264 22.575L494.264 21.475L498.972 21.475L498.972 22.575L497.828 22.839L493.186 34.433ZM507.175 29.263C507.762 29.483 508.349 29.9743 508.935 30.737C509.522 31.485 510.226 32.5043 511.047 33.795C511.605 34.7043 512.037 35.3717 512.345 35.797C512.653 36.2077 512.917 36.4423 513.137 36.501L513.973 36.743L513.973 37.821L511.245 37.821C510.908 37.821 510.527 37.535 510.101 36.963C509.691 36.3763 509.155 35.489 508.495 34.301C507.747 32.9663 507.124 31.9543 506.625 31.265C506.127 30.5757 505.65 30.231 505.195 30.231L503.787 30.231L503.787 36.501L505.745 36.765L505.745 37.821L499.717 37.821L499.717 36.721L501.499 36.501L501.499 22.839L499.717 22.575L499.717 21.475L505.613 21.475L505.613 22.575L503.787 22.839L503.787 29.175L505.679 29.175L510.123 22.839L508.275 22.575L508.275 21.475L513.687 21.475L513.687 22.575L511.949 22.839L507.175 29.263ZM527.644 38.063C526.031 38.063 524.652 37.7183 523.508 37.029C522.379 36.325 521.521 35.3423 520.934 34.081C520.347 32.8197 520.054 31.3383 520.054 29.637C520.054 27.9943 520.399 26.5423 521.088 25.281C521.777 24.0197 522.723 23.0443 523.926 22.355C525.129 21.651 526.478 21.299 527.974 21.299C529.103 21.299 530.46 21.475 532.044 21.827L532.77 21.959L532.55 25.919L531.076 25.919L530.526 23.125C530.321 22.949 529.961 22.8023 529.448 22.685C528.949 22.553 528.333 22.487 527.6 22.487C526.661 22.487 525.825 22.7583 525.092 23.301C524.359 23.829 523.779 24.6137 523.354 25.655C522.943 26.6963 522.738 27.943 522.738 29.395C522.738 30.7737 522.921 32.0277 523.288 33.157C523.655 34.2863 524.212 35.1883 524.96 35.863C525.708 36.523 526.632 36.853 527.732 36.853C528.509 36.853 529.103 36.787 529.514 36.655C529.939 36.523 530.299 36.3323 530.592 36.083L531.516 33.927L532.902 34.103L532.374 37.227C532.066 37.2417 531.611 37.3443 531.01 37.535C530.482 37.6963 529.969 37.821 529.47 37.909C528.986 38.0117 528.377 38.063 527.644 38.063ZM540.081 21.343L542.501 21.343L547.847 36.523L549.211 36.743L549.211 37.821L543.403 37.821L543.403 36.743L545.229 36.523L544.195 33.267L537.771 33.267L536.737 36.523L538.629 36.743L538.629 37.821L533.415 37.821L533.415 36.743L534.779 36.523L540.081 21.343ZM541.467 24.863L540.917 22.927L540.389 24.907L538.167 31.969L543.777 31.969L541.467 24.863ZM552.542 22.839L550.144 22.575L550.144 21.475L555.974 21.475L559.076 31.375L559.802 34.169L560.462 31.375L563.542 21.475L569.328 21.475L569.328 22.575L566.908 22.839L568.668 36.501L570.582 36.743L570.582 37.821L564.246 37.821L564.246 36.743L566.248 36.523L565.258 26.645L564.796 22.399L563.872 25.567L560.198 37.073L558.768 37.073L555.204 26.535L553.906 22.377L553.51 26.645L552.63 36.523L554.808 36.743L554.808 37.821L549.066 37.821L549.066 36.743L550.936 36.523L552.542 22.839ZM578.089 21.475L578.089 22.575L575.933 22.839L575.933 33.883L577.737 31.177L584.073 23.433L584.073 22.839L582.115 22.575L582.115 21.475L588.165 21.475L588.165 22.575L586.405 22.839L586.405 36.523L588.275 36.743L588.275 37.821L582.137 37.821L582.137 36.743L584.073 36.523L584.073 25.325L582.445 27.877L575.933 35.731L575.933 36.523L578.001 36.743L578.001 37.821L571.797 37.821L571.797 36.743L573.623 36.523L573.623 22.839L571.863 22.575L571.863 21.475L578.089 21.475ZM595.947 29.659L591.371 22.861L589.743 22.575L589.743 21.475L596.299 21.475L596.299 22.575L594.209 22.861L597.641 28.427L601.073 22.839L599.137 22.575L599.137 21.475L604.549 21.475L604.549 22.575L602.789 22.861L598.323 29.241L603.229 36.523L604.901 36.743L604.901 37.821L598.367 37.821L598.367 36.743L600.413 36.523L596.673 30.517L593.087 36.523L595.287 36.743L595.287 37.821L589.435 37.821L589.435 36.743L591.305 36.523L595.947 29.659ZM618.59 34.433C618.531 34.5503 618.355 34.9683 618.062 35.687C617.769 36.391 617.351 36.963 616.808 37.403C616.265 37.843 615.635 38.063 614.916 38.063C614.535 38.063 614.153 38.0263 613.772 37.953C613.405 37.8943 613.105 37.8137 612.87 37.711L612.87 36.149L614.432 36.171C615.107 36.171 615.605 36.039 615.928 35.775C616.251 35.4963 616.529 35.005 616.764 34.301L611.22 22.839L610.032 22.575L610.032 21.475L615.972 21.475L615.972 22.575L613.816 22.839L617.358 30.495L618.018 32.497L618.744 30.473L621.538 22.839L619.668 22.575L619.668 21.475L624.376 21.475L624.376 22.575L623.232 22.839L618.59 34.433ZM630.401 22.641L626.617 22.773L625.847 27.371L624.396 27.371L624.769 21.475L638.475 21.475L638.74 27.371L637.353 27.371L636.628 22.773L632.821 22.641L632.821 36.523L635.945 36.743L635.945 37.821L627.542 37.821L627.542 36.743L630.401 36.523L630.401 22.641ZM646.932 38.063C645.436 38.063 644.167 37.7183 643.126 37.029C642.099 36.3397 641.322 35.3717 640.794 34.125C640.266 32.8637 640.002 31.4043 640.002 29.747C640.002 28.0603 640.317 26.579 640.948 25.303C641.593 24.027 642.473 23.0443 643.588 22.355C644.703 21.651 645.957 21.299 647.35 21.299C649.638 21.299 651.383 22.025 652.586 23.477C653.803 24.9143 654.412 26.909 654.412 29.461C654.412 31.177 654.082 32.6877 653.422 33.993C652.777 35.2837 651.882 36.2883 650.738 37.007C649.609 37.711 648.34 38.063 646.932 38.063ZM647.218 22.443C645.795 22.443 644.673 23.0663 643.852 24.313C643.031 25.545 642.62 27.3563 642.62 29.747C642.62 31.947 643.016 33.6923 643.808 34.983C644.615 36.259 645.737 36.897 647.174 36.897C648.582 36.897 649.697 36.259 650.518 34.983C651.354 33.707 651.772 31.8737 651.772 29.483C651.772 27.2683 651.376 25.545 650.584 24.313C649.792 23.0663 648.67 22.443 647.218 22.443ZM671.609 21.475L671.609 22.575L669.739 22.861L669.739 36.501L671.785 36.743L671.785 37.821L665.581 37.821L665.581 36.743L667.407 36.501L667.407 22.773L660.367 22.773L660.367 36.523L662.413 36.743L662.413 37.821L656.253 37.821L656.253 36.743L658.035 36.523L658.035 22.839L656.165 22.575L656.165 21.475L671.609 21.475ZM679.021 21.343L681.441 21.343L686.787 36.523L688.151 36.743L688.151 37.821L682.343 37.821L682.343 36.743L684.169 36.523L683.135 33.267L676.711 33.267L675.677 36.523L677.569 36.743L677.569 37.821L672.355 37.821L672.355 36.743L673.719 36.523L679.021 21.343ZM680.407 24.863L679.857 22.927L679.329 24.907L677.107 31.969L682.717 31.969L680.407 24.863ZM696.673 28.757C696.82 27.217 697.238 25.8823 697.927 24.753C698.616 23.6237 699.482 22.7657 700.523 22.179C701.579 21.5777 702.716 21.2843 703.933 21.299C705.37 21.299 706.595 21.6363 707.607 22.311C708.634 22.971 709.411 23.9023 709.939 25.105C710.467 26.293 710.731 27.679 710.731 29.263C710.731 31.0377 710.416 32.5923 709.785 33.927C709.169 35.247 708.318 36.259 707.233 36.963C706.162 37.667 704.96 38.019 703.625 38.019C702.144 38.019 700.882 37.6963 699.841 37.051C698.8 36.391 698.008 35.467 697.465 34.279C696.922 33.0763 696.644 31.6757 696.629 30.077L693.109 30.077L693.109 36.501L695.001 36.743L695.001 37.821L688.951 37.821L688.951 36.743L690.755 36.501L690.755 22.839L688.995 22.575L688.995 21.475L694.913 21.475L694.913 22.575L693.087 22.839L693.087 28.757L696.673 28.757ZM703.779 22.487C702.386 22.487 701.271 23.0957 700.435 24.313C699.599 25.5303 699.181 27.3563 699.181 29.791C699.181 31.9177 699.577 33.619 700.369 34.895C701.176 36.171 702.305 36.809 703.757 36.809C705.15 36.809 706.228 36.193 706.991 34.961C707.768 33.7143 708.157 31.881 708.157 29.461C708.157 27.3343 707.776 25.6403 707.013 24.379C706.25 23.1177 705.172 22.487 703.779 22.487ZM735.441 36.501C735.251 38.6277 735.053 40.4317 734.847 41.913L733.439 41.913C733.41 41.3703 733.359 40.5783 733.285 39.537C733.212 38.5103 733.153 37.9383 733.109 37.821L712.363 37.821L712.363 36.743L714.431 36.523L714.431 22.839L712.605 22.575L712.605 21.475L718.699 21.475L718.699 22.575L716.741 22.839L716.741 36.523L722.527 36.523L722.527 22.839L720.833 22.575L720.833 21.475L726.509 21.475L726.509 22.575L724.793 22.839L724.793 36.523L730.469 36.523L730.469 22.839L728.819 22.575L728.819 21.475L734.605 21.475L734.605 22.575L732.801 22.839L732.801 36.501L735.441 36.501ZM743.368 21.475L743.368 22.575L741.212 22.839L741.212 33.883L743.016 31.177L749.352 23.433L749.352 22.839L747.394 22.575L747.394 21.475L753.444 21.475L753.444 22.575L751.684 22.839L751.684 36.523L753.554 36.743L753.554 37.821L747.416 37.821L747.416 36.743L749.352 36.523L749.352 25.325L747.724 27.877L741.212 35.731L741.212 36.523L743.28 36.743L743.28 37.821L737.076 37.821L737.076 36.743L738.902 36.523L738.902 22.839L737.142 22.575L737.142 21.475L743.368 21.475ZM761.227 29.659L756.651 22.861L755.023 22.575L755.023 21.475L761.579 21.475L761.579 22.575L759.489 22.861L762.921 28.427L766.353 22.839L764.417 22.575L764.417 21.475L769.829 21.475L769.829 22.575L768.069 22.861L763.603 29.241L768.509 36.523L770.181 36.743L770.181 37.821L763.647 37.821L763.647 36.743L765.693 36.523L761.953 30.517L758.367 36.523L760.567 36.743L760.567 37.821L754.715 37.821L754.715 36.743L756.585 36.523L761.227 29.659ZM774.733 32.585L773.325 32.585L772.665 18.395L775.349 18.395L774.733 32.585ZM772.577 36.655C772.577 36.215 772.745 35.841 773.083 35.533C773.42 35.225 773.801 35.071 774.227 35.071C774.696 35.071 775.055 35.203 775.305 35.467C775.554 35.731 775.679 36.061 775.679 36.457C775.679 36.9263 775.51 37.3077 775.173 37.601C774.85 37.8943 774.454 38.041 773.985 38.041C773.603 38.041 773.273 37.9163 772.995 37.667C772.716 37.403 772.577 37.0657 772.577 36.655Z" fill="#FFFFFF" fill-opacity="1.000000" fill-rule="evenodd"/>
	<circle id="Ellipse 9" cx="793.000000" cy="30.000000" r="3.000000" fill="#FFFFFF" fill-opacity="1.000000"/>
	<path id="Шахматы двигают вперед не только культуру, но и экономику!" d="M815.682 21.475L815.682 22.575L813.724 22.861L813.724 36.523L819.51 36.523L819.51 22.839L817.816 22.575L817.816 21.475L823.492 21.475L823.492 22.575L821.776 22.839L821.776 36.523L827.452 36.523L827.452 22.839L825.802 22.575L825.802 21.475L831.588 21.475L831.588 22.575L829.784 22.839L829.784 36.501L831.83 36.743L831.83 37.821L809.346 37.821L809.346 36.743L811.414 36.523L811.414 22.839L809.588 22.575L809.588 21.475L815.682 21.475ZM839.038 21.343L841.458 21.343L846.804 36.523L848.168 36.743L848.168 37.821L842.36 37.821L842.36 36.743L844.186 36.523L843.152 33.267L836.728 33.267L835.694 36.523L837.586 36.743L837.586 37.821L832.372 37.821L832.372 36.743L833.736 36.523L839.038 21.343ZM840.424 24.863L839.874 22.927L839.346 24.907L837.124 31.969L842.734 31.969L840.424 24.863ZM854.557 29.659L849.981 22.861L848.353 22.575L848.353 21.475L854.909 21.475L854.909 22.575L852.819 22.861L856.251 28.427L859.683 22.839L857.747 22.575L857.747 21.475L863.159 21.475L863.159 22.575L861.399 22.861L856.933 29.241L861.839 36.523L863.511 36.743L863.511 37.821L856.977 37.821L856.977 36.743L859.023 36.523L855.283 30.517L851.697 36.523L853.897 36.743L853.897 37.821L848.045 37.821L848.045 36.743L849.915 36.523L854.557 29.659ZM867.161 22.839L864.763 22.575L864.763 21.475L870.593 21.475L873.695 31.375L874.421 34.169L875.081 31.375L878.161 21.475L883.947 21.475L883.947 22.575L881.527 22.839L883.287 36.501L885.201 36.743L885.201 37.821L878.865 37.821L878.865 36.743L880.867 36.523L879.877 26.645L879.415 22.399L878.491 25.567L874.817 37.073L873.387 37.073L869.823 26.535L868.525 22.377L868.129 26.645L867.249 36.523L869.427 36.743L869.427 37.821L863.685 37.821L863.685 36.743L865.555 36.523L867.161 22.839ZM891.718 21.343L894.138 21.343L899.484 36.523L900.848 36.743L900.848 37.821L895.04 37.821L895.04 36.743L896.866 36.523L895.832 33.267L889.408 33.267L888.374 36.523L890.266 36.743L890.266 37.821L885.052 37.821L885.052 36.743L886.416 36.523L891.718 21.343ZM893.104 24.863L892.554 22.927L892.026 24.907L889.804 31.969L895.414 31.969L893.104 24.863ZM906.95 22.641L903.166 22.773L902.396 27.371L900.944 27.371L901.318 21.475L915.024 21.475L915.288 27.371L913.902 27.371L913.176 22.773L909.37 22.641L909.37 36.523L912.494 36.743L912.494 37.821L904.09 37.821L904.09 36.743L906.95 36.523L906.95 22.641ZM923.921 27.899C925.71 27.899 927.081 28.3243 928.035 29.175C928.988 30.011 929.465 31.1843 929.465 32.695C929.465 34.3817 928.929 35.687 927.859 36.611C926.788 37.535 925.373 37.997 923.613 37.997C923.378 37.997 923.129 37.9897 922.865 37.975C922.615 37.9603 922.359 37.9457 922.095 37.931C921.244 37.8577 920.489 37.821 919.829 37.821L916.837 37.821L916.837 36.743L918.685 36.523L918.685 22.817L916.903 22.531L916.903 21.475L923.173 21.475L923.173 22.531L921.017 22.817L921.017 27.921L923.921 27.899ZM937.737 21.475L937.737 22.575L935.691 22.839L935.691 36.523L937.737 36.765L937.737 37.821L931.269 37.821L931.269 36.743L933.315 36.523L933.315 22.839L931.269 22.575L931.269 21.475L937.737 21.475ZM921.017 36.611C921.398 36.6843 921.728 36.7357 922.007 36.765C922.3 36.7943 922.696 36.809 923.195 36.809C924.427 36.809 925.365 36.4643 926.011 35.775C926.671 35.0857 927.001 34.103 927.001 32.827C927.001 31.6097 926.678 30.7003 926.033 30.099C925.387 29.483 924.463 29.175 923.261 29.175L921.017 29.197L921.017 36.611ZM959.277 36.501C959.277 36.6917 959.196 37.6303 959.035 39.317C958.873 41.0037 958.785 41.869 958.771 41.913L957.363 41.913C957.333 41.3703 957.267 40.5783 957.165 39.537C957.077 38.4957 957.011 37.9237 956.967 37.821L946.913 37.821C946.854 37.8797 946.707 38.437 946.473 39.493C946.253 40.549 946.084 41.363 945.967 41.935L944.537 41.935C944.551 41.3483 944.581 40.4683 944.625 39.295C944.683 38.1363 944.735 37.205 944.779 36.501L946.385 36.501C946.737 36.061 947.118 35.3423 947.529 34.345C947.954 33.333 948.335 31.969 948.673 30.253C949.01 28.5223 949.179 26.4983 949.179 24.181L949.179 22.839L946.913 22.575L946.913 21.475L959.365 21.475L959.365 22.575L957.297 22.839L957.297 36.501L959.277 36.501ZM950.543 24.313C950.557 26.3957 950.433 28.2877 950.169 29.989C949.905 31.6757 949.589 33.069 949.223 34.169C948.871 35.269 948.548 36.0463 948.255 36.501L954.965 36.501L954.987 22.751L950.543 22.751L950.543 24.313ZM963.135 22.839L961.331 22.575L961.331 21.475L964.301 21.475C964.8 21.475 965.43 21.4457 966.193 21.387C966.897 21.3283 967.418 21.299 967.755 21.299C969.779 21.299 971.224 21.6143 972.089 22.245C972.969 22.8757 973.409 23.7997 973.409 25.017C973.409 26.0583 973.108 26.953 972.507 27.701C971.906 28.449 971.084 28.9183 970.043 29.109C971.451 29.0797 972.558 29.4097 973.365 30.099C974.172 30.7883 974.575 31.727 974.575 32.915C974.575 34.3963 974.047 35.6063 972.991 36.545C971.95 37.4837 970.219 37.953 967.799 37.953C967.271 37.953 966.765 37.931 966.281 37.887C965.137 37.843 964.455 37.821 964.235 37.821L961.309 37.821L961.309 36.743L963.135 36.523L963.135 22.839ZM965.467 28.691C965.672 28.7057 966.09 28.713 966.721 28.713L967.931 28.713C968.958 28.713 969.735 28.427 970.263 27.855C970.791 27.283 971.055 26.469 971.055 25.413C971.055 24.3863 970.791 23.6383 970.263 23.169C969.735 22.685 968.833 22.443 967.557 22.443C967.029 22.443 966.486 22.4723 965.929 22.531L965.467 22.575L965.467 28.691ZM965.467 36.589C965.804 36.7063 966.567 36.765 967.755 36.765C969.236 36.765 970.307 36.4643 970.967 35.863C971.642 35.247 971.979 34.367 971.979 33.223C971.979 32.0937 971.686 31.2723 971.099 30.759C970.527 30.2457 969.596 29.989 968.305 29.989C966.809 29.989 965.863 30.0037 965.467 30.033L965.467 36.589ZM982.727 21.475L982.727 22.575L980.571 22.839L980.571 33.883L982.375 31.177L988.711 23.433L988.711 22.839L986.753 22.575L986.753 21.475L992.803 21.475L992.803 22.575L991.043 22.839L991.043 36.523L992.913 36.743L992.913 37.821L986.775 37.821L986.775 36.743L988.711 36.523L988.711 25.325L987.083 27.877L980.571 35.731L980.571 36.523L982.639 36.743L982.639 37.821L976.435 37.821L976.435 36.743L978.261 36.523L978.261 22.839L976.501 22.575L976.501 21.475L982.727 21.475ZM1006.13 21.475L1006.28 27.261L1004.81 27.261L1004.17 22.795L999.332 22.619L999.332 36.501L1003.16 36.743L1003.16 37.821L994.536 37.821L994.536 36.743L996.956 36.501L996.956 22.861L994.602 22.553L994.602 21.475L1006.13 21.475ZM1012.98 21.343L1015.4 21.343L1020.74 36.523L1022.11 36.743L1022.11 37.821L1016.3 37.821L1016.3 36.743L1018.12 36.523L1017.09 33.267L1010.67 33.267L1009.63 36.523L1011.52 36.743L1011.52 37.821L1006.31 37.821L1006.31 36.743L1007.67 36.523L1012.98 21.343ZM1014.36 24.863L1013.81 22.927L1013.28 24.907L1011.06 31.969L1016.67 31.969L1014.36 24.863ZM1030.63 28.757C1030.77 27.217 1031.19 25.8823 1031.88 24.753C1032.57 23.6237 1033.44 22.7657 1034.48 22.179C1035.53 21.5777 1036.67 21.2843 1037.89 21.299C1039.33 21.299 1040.55 21.6363 1041.56 22.311C1042.59 22.971 1043.37 23.9023 1043.89 25.105C1044.42 26.293 1044.69 27.679 1044.69 29.263C1044.69 31.0377 1044.37 32.5923 1043.74 33.927C1043.12 35.247 1042.27 36.259 1041.19 36.963C1040.12 37.667 1038.91 38.019 1037.58 38.019C1036.1 38.019 1034.84 37.6963 1033.8 37.051C1032.75 36.391 1031.96 35.467 1031.42 34.279C1030.88 33.0763 1030.6 31.6757 1030.58 30.077L1027.06 30.077L1027.06 36.501L1028.96 36.743L1028.96 37.821L1022.91 37.821L1022.91 36.743L1024.71 36.501L1024.71 22.839L1022.95 22.575L1022.95 21.475L1028.87 21.475L1028.87 22.575L1027.04 22.839L1027.04 28.757L1030.63 28.757ZM1037.73 22.487C1036.34 22.487 1035.23 23.0957 1034.39 24.313C1033.55 25.5303 1033.14 27.3563 1033.14 29.791C1033.14 31.9177 1033.53 33.619 1034.32 34.895C1035.13 36.171 1036.26 36.809 1037.71 36.809C1039.11 36.809 1040.18 36.193 1040.95 34.961C1041.72 33.7143 1042.11 31.881 1042.11 29.461C1042.11 27.3343 1041.73 25.6403 1040.97 24.379C1040.21 23.1177 1039.13 22.487 1037.73 22.487ZM1051.86 22.641L1048.08 22.773L1047.31 27.371L1045.86 27.371L1046.23 21.475L1059.94 21.475L1060.2 27.371L1058.81 27.371L1058.09 22.773L1054.28 22.641L1054.28 36.523L1057.41 36.743L1057.41 37.821L1049 37.821L1049 36.743L1051.86 36.523L1051.86 22.641ZM1068.77 22.839L1066.97 22.575L1066.97 21.475L1069.94 21.475C1070.44 21.475 1071.07 21.4457 1071.83 21.387C1072.54 21.3283 1073.06 21.299 1073.39 21.299C1075.42 21.299 1076.86 21.6143 1077.73 22.245C1078.61 22.8757 1079.05 23.7997 1079.05 25.017C1079.05 26.0583 1078.75 26.953 1078.15 27.701C1077.54 28.449 1076.72 28.9183 1075.68 29.109C1077.09 29.0797 1078.2 29.4097 1079 30.099C1079.81 30.7883 1080.21 31.727 1080.21 32.915C1080.21 34.3963 1079.69 35.6063 1078.63 36.545C1077.59 37.4837 1075.86 37.953 1073.44 37.953C1072.91 37.953 1072.4 37.931 1071.92 37.887C1070.78 37.843 1070.09 37.821 1069.87 37.821L1066.95 37.821L1066.95 36.743L1068.77 36.523L1068.77 22.839ZM1071.11 28.691C1071.31 28.7057 1071.73 28.713 1072.36 28.713L1073.57 28.713C1074.6 28.713 1075.37 28.427 1075.9 27.855C1076.43 27.283 1076.69 26.469 1076.69 25.413C1076.69 24.3863 1076.43 23.6383 1075.9 23.169C1075.37 22.685 1074.47 22.443 1073.2 22.443C1072.67 22.443 1072.12 22.4723 1071.57 22.531L1071.11 22.575L1071.11 28.691ZM1071.11 36.589C1071.44 36.7063 1072.21 36.765 1073.39 36.765C1074.87 36.765 1075.95 36.4643 1076.61 35.863C1077.28 35.247 1077.62 34.367 1077.62 33.223C1077.62 32.0937 1077.32 31.2723 1076.74 30.759C1076.17 30.2457 1075.23 29.989 1073.94 29.989C1072.45 29.989 1071.5 30.0037 1071.11 30.033L1071.11 36.589ZM1097.47 21.475L1097.47 22.575L1095.6 22.861L1095.6 36.501L1097.65 36.743L1097.65 37.821L1091.45 37.821L1091.45 36.743L1093.27 36.501L1093.27 22.773L1086.23 22.773L1086.23 36.523L1088.28 36.743L1088.28 37.821L1082.12 37.821L1082.12 36.743L1083.9 36.523L1083.9 22.839L1082.03 22.575L1082.03 21.475L1097.47 21.475ZM1101.34 22.839L1099.54 22.575L1099.54 21.475L1110.74 21.475L1111.05 24.885L1109.79 24.885L1109.15 22.751L1103.7 22.619L1103.7 28.823L1107.37 28.757L1107.68 26.931L1108.89 26.931L1108.89 31.991L1107.68 31.991L1107.37 30.099L1103.7 30.033L1103.7 36.589L1109.9 36.369L1111.07 33.597L1112.37 33.993L1111.73 37.821L1099.52 37.821L1099.52 36.743L1101.34 36.523L1101.34 22.839ZM1115.72 22.839L1114 22.575L1114 21.475L1116.93 21.475C1117.46 21.475 1117.98 21.453 1118.49 21.409C1119.28 21.3503 1120.03 21.321 1120.73 21.321C1122.86 21.3357 1124.36 21.7317 1125.24 22.509C1126.12 23.2863 1126.56 24.4597 1126.56 26.029C1126.56 27.2023 1126.29 28.2217 1125.75 29.087C1125.21 29.9523 1124.45 30.6123 1123.48 31.067C1122.53 31.5217 1121.43 31.749 1120.18 31.749C1119.76 31.749 1119.33 31.7417 1118.89 31.727C1118.45 31.6977 1118.17 31.6757 1118.07 31.661L1118.07 36.501L1121.09 36.743L1121.09 37.821L1113.89 37.821L1113.89 36.743L1115.72 36.523L1115.72 22.839ZM1118.07 30.451C1118.48 30.5243 1119.19 30.561 1120.18 30.561C1121.34 30.561 1122.28 30.209 1123 29.505C1123.73 28.801 1124.1 27.6497 1124.1 26.051C1124.1 24.7897 1123.78 23.8877 1123.15 23.345C1122.52 22.7877 1121.54 22.509 1120.21 22.509C1119.74 22.509 1119.24 22.5383 1118.71 22.597C1118.39 22.6263 1118.17 22.641 1118.07 22.641L1118.07 30.451ZM1129.96 22.839L1128.16 22.575L1128.16 21.475L1139.35 21.475L1139.66 24.885L1138.41 24.885L1137.77 22.751L1132.32 22.619L1132.32 28.823L1135.99 28.757L1136.3 26.931L1137.51 26.931L1137.51 31.991L1136.3 31.991L1135.99 30.099L1132.32 30.033L1132.32 36.589L1138.52 36.369L1139.69 33.597L1140.98 33.993L1140.34 37.821L1128.14 37.821L1128.14 36.743L1129.96 36.523L1129.96 22.839ZM1156.59 36.501C1156.59 36.6917 1156.51 37.6303 1156.35 39.317C1156.19 41.0037 1156.1 41.869 1156.08 41.913L1154.68 41.913C1154.65 41.3703 1154.58 40.5783 1154.48 39.537C1154.39 38.4957 1154.32 37.9237 1154.28 37.821L1144.23 37.821C1144.17 37.8797 1144.02 38.437 1143.79 39.493C1143.57 40.549 1143.4 41.363 1143.28 41.935L1141.85 41.935C1141.86 41.3483 1141.89 40.4683 1141.94 39.295C1142 38.1363 1142.05 37.205 1142.09 36.501L1143.7 36.501C1144.05 36.061 1144.43 35.3423 1144.84 34.345C1145.27 33.333 1145.65 31.969 1145.99 30.253C1146.32 28.5223 1146.49 26.4983 1146.49 24.181L1146.49 22.839L1144.23 22.575L1144.23 21.475L1156.68 21.475L1156.68 22.575L1154.61 22.839L1154.61 36.501L1156.59 36.501ZM1147.86 24.313C1147.87 26.3957 1147.75 28.2877 1147.48 29.989C1147.22 31.6757 1146.9 33.069 1146.54 34.169C1146.18 35.269 1145.86 36.0463 1145.57 36.501L1152.28 36.501L1152.3 22.751L1147.86 22.751L1147.86 24.313ZM1165.71 22.839L1163.97 22.575L1163.97 21.475L1169.96 21.475L1169.96 22.575L1168.07 22.839L1168.07 28.757L1175.81 28.757L1175.81 22.839L1174.03 22.575L1174.03 21.475L1179.92 21.475L1179.92 22.575L1178.19 22.839L1178.19 36.523L1179.92 36.743L1179.92 37.821L1174.01 37.821L1174.01 36.743L1175.81 36.523L1175.81 30.121L1168.07 30.121L1168.07 36.523L1169.98 36.743L1169.98 37.821L1163.93 37.821L1163.93 36.743L1165.71 36.523L1165.71 22.839ZM1183.89 22.839L1182.08 22.575L1182.08 21.475L1193.28 21.475L1193.59 24.885L1192.33 24.885L1191.7 22.751L1186.24 22.619L1186.24 28.823L1189.91 28.757L1190.22 26.931L1191.43 26.931L1191.43 31.991L1190.22 31.991L1189.91 30.099L1186.24 30.033L1186.24 36.589L1192.44 36.369L1193.61 33.597L1194.91 33.993L1194.27 37.821L1182.06 37.821L1182.06 36.743L1183.89 36.523L1183.89 22.839ZM1206.98 22.641L1203.2 22.773L1202.43 27.371L1200.97 27.371L1201.35 21.475L1215.05 21.475L1215.32 27.371L1213.93 27.371L1213.21 22.773L1209.4 22.641L1209.4 36.523L1212.52 36.743L1212.52 37.821L1204.12 37.821L1204.12 36.743L1206.98 36.523L1206.98 22.641ZM1223.51 38.063C1222.01 38.063 1220.75 37.7183 1219.7 37.029C1218.68 36.3397 1217.9 35.3717 1217.37 34.125C1216.84 32.8637 1216.58 31.4043 1216.58 29.747C1216.58 28.0603 1216.9 26.579 1217.53 25.303C1218.17 24.027 1219.05 23.0443 1220.17 22.355C1221.28 21.651 1222.53 21.299 1223.93 21.299C1226.22 21.299 1227.96 22.025 1229.16 23.477C1230.38 24.9143 1230.99 26.909 1230.99 29.461C1230.99 31.177 1230.66 32.6877 1230 33.993C1229.35 35.2837 1228.46 36.2883 1227.32 37.007C1226.19 37.711 1224.92 38.063 1223.51 38.063ZM1223.8 22.443C1222.37 22.443 1221.25 23.0663 1220.43 24.313C1219.61 25.545 1219.2 27.3563 1219.2 29.747C1219.2 31.947 1219.59 33.6923 1220.39 34.983C1221.19 36.259 1222.31 36.897 1223.75 36.897C1225.16 36.897 1226.27 36.259 1227.1 34.983C1227.93 33.707 1228.35 31.8737 1228.35 29.483C1228.35 27.2683 1227.95 25.545 1227.16 24.313C1226.37 23.0663 1225.25 22.443 1223.8 22.443ZM1238.22 24.819C1238.22 27.459 1238.07 29.791 1237.76 31.815C1237.47 33.8243 1237.02 35.3497 1236.42 36.391C1236.11 36.919 1235.76 37.3077 1235.36 37.557C1234.96 37.8063 1234.5 37.931 1233.95 37.931C1233.25 37.931 1232.73 37.8943 1232.39 37.821L1232.24 36.039C1232.57 36.083 1233.12 36.105 1233.89 36.105C1234.17 36.105 1234.41 36.0463 1234.61 35.929C1234.82 35.797 1235.01 35.577 1235.19 35.269C1236.3 33.5383 1236.86 29.9743 1236.86 24.577L1236.86 22.839L1234.33 22.575L1234.33 21.475L1247.04 21.475L1247.04 22.575L1245 22.839L1245 36.523L1247.18 36.743L1247.18 37.821L1240.4 37.821L1240.4 36.743L1242.67 36.501L1242.69 22.839L1238.22 22.839L1238.22 24.819ZM1256.03 27.899C1257.82 27.899 1259.19 28.3243 1260.14 29.175C1261.09 30.011 1261.57 31.1843 1261.57 32.695C1261.57 34.3817 1261.03 35.687 1259.96 36.611C1258.89 37.535 1257.48 37.997 1255.72 37.997C1255.48 37.997 1255.23 37.9897 1254.97 37.975C1254.72 37.9603 1254.46 37.9457 1254.2 37.931C1253.35 37.8577 1252.59 37.821 1251.93 37.821L1248.94 37.821L1248.94 36.743L1250.79 36.523L1250.79 22.817L1249.01 22.531L1249.01 21.475L1255.28 21.475L1255.28 22.531L1253.12 22.817L1253.12 27.921L1256.03 27.899ZM1253.12 36.611C1253.5 36.6843 1253.83 36.7357 1254.11 36.765C1254.41 36.7943 1254.8 36.809 1255.3 36.809C1256.53 36.809 1257.47 36.4643 1258.12 35.775C1258.78 35.0857 1259.11 34.103 1259.11 32.827C1259.11 31.6097 1258.78 30.7003 1258.14 30.099C1257.49 29.483 1256.57 29.175 1255.37 29.175L1253.12 29.197L1253.12 36.611ZM1270.73 29.263C1271.32 29.483 1271.91 29.9743 1272.49 30.737C1273.08 31.485 1273.78 32.5043 1274.6 33.795C1275.16 34.7043 1275.59 35.3717 1275.9 35.797C1276.21 36.2077 1276.47 36.4423 1276.69 36.501L1277.53 36.743L1277.53 37.821L1274.8 37.821C1274.46 37.821 1274.08 37.535 1273.66 36.963C1273.25 36.3763 1272.71 35.489 1272.05 34.301C1271.3 32.9663 1270.68 31.9543 1270.18 31.265C1269.68 30.5757 1269.21 30.231 1268.75 30.231L1267.34 30.231L1267.34 36.501L1269.3 36.765L1269.3 37.821L1263.27 37.821L1263.27 36.721L1265.06 36.501L1265.06 22.839L1263.27 22.575L1263.27 21.475L1269.17 21.475L1269.17 22.575L1267.34 22.839L1267.34 29.175L1269.24 29.175L1273.68 22.839L1271.83 22.575L1271.83 21.475L1277.24 21.475L1277.24 22.575L1275.51 22.839L1270.73 29.263ZM1285.34 38.063C1283.85 38.063 1282.58 37.7183 1281.54 37.029C1280.51 36.3397 1279.73 35.3717 1279.2 34.125C1278.68 32.8637 1278.41 31.4043 1278.41 29.747C1278.41 28.0603 1278.73 26.579 1279.36 25.303C1280 24.027 1280.88 23.0443 1282 22.355C1283.11 21.651 1284.37 21.299 1285.76 21.299C1288.05 21.299 1289.79 22.025 1291 23.477C1292.21 24.9143 1292.82 26.909 1292.82 29.461C1292.82 31.177 1292.49 32.6877 1291.83 33.993C1291.19 35.2837 1290.29 36.2883 1289.15 37.007C1288.02 37.711 1286.75 38.063 1285.34 38.063ZM1285.63 22.443C1284.21 22.443 1283.08 23.0663 1282.26 24.313C1281.44 25.545 1281.03 27.3563 1281.03 29.747C1281.03 31.947 1281.43 33.6923 1282.22 34.983C1283.02 36.259 1284.15 36.897 1285.58 36.897C1286.99 36.897 1288.11 36.259 1288.93 34.983C1289.76 33.707 1290.18 31.8737 1290.18 29.483C1290.18 27.2683 1289.79 25.545 1288.99 24.313C1288.2 23.0663 1287.08 22.443 1285.63 22.443ZM1307.32 29.263C1307.91 29.483 1308.49 29.9743 1309.08 30.737C1309.67 31.485 1310.37 32.5043 1311.19 33.795C1311.75 34.7043 1312.18 35.3717 1312.49 35.797C1312.8 36.2077 1313.06 36.4423 1313.28 36.501L1314.12 36.743L1314.12 37.821L1311.39 37.821C1311.05 37.821 1310.67 37.535 1310.25 36.963C1309.84 36.3763 1309.3 35.489 1308.64 34.301C1307.89 32.9663 1307.27 31.9543 1306.77 31.265C1306.27 30.5757 1305.79 30.231 1305.34 30.231L1303.93 30.231L1303.93 36.501L1305.89 36.765L1305.89 37.821L1299.86 37.821L1299.86 36.721L1301.64 36.501L1301.64 22.839L1299.86 22.575L1299.86 21.475L1305.76 21.475L1305.76 22.575L1303.93 22.839L1303.93 29.175L1305.82 29.175L1310.27 22.839L1308.42 22.575L1308.42 21.475L1313.83 21.475L1313.83 22.575L1312.09 22.839L1307.32 29.263ZM1322.68 34.433C1322.62 34.5503 1322.44 34.9683 1322.15 35.687C1321.86 36.391 1321.44 36.963 1320.9 37.403C1320.35 37.843 1319.72 38.063 1319 38.063C1318.62 38.063 1318.24 38.0263 1317.86 37.953C1317.49 37.8943 1317.19 37.8137 1316.96 37.711L1316.96 36.149L1318.52 36.171C1319.19 36.171 1319.69 36.039 1320.02 35.775C1320.34 35.4963 1320.62 35.005 1320.85 34.301L1315.31 22.839L1314.12 22.575L1314.12 21.475L1320.06 21.475L1320.06 22.575L1317.9 22.839L1321.45 30.495L1322.11 32.497L1322.83 30.473L1325.63 22.839L1323.76 22.575L1323.76 21.475L1328.46 21.475L1328.46 22.575L1327.32 22.839L1322.68 34.433ZM1334.62 24.819C1334.62 27.459 1334.47 29.791 1334.16 31.815C1333.87 33.8243 1333.42 35.3497 1332.82 36.391C1332.51 36.919 1332.16 37.3077 1331.76 37.557C1331.37 37.8063 1330.9 37.931 1330.35 37.931C1329.65 37.931 1329.13 37.8943 1328.79 37.821L1328.64 36.039C1328.97 36.083 1329.52 36.105 1330.29 36.105C1330.57 36.105 1330.81 36.0463 1331.01 35.929C1331.22 35.797 1331.41 35.577 1331.59 35.269C1332.7 33.5383 1333.26 29.9743 1333.26 24.577L1333.26 22.839L1330.73 22.575L1330.73 21.475L1343.44 21.475L1343.44 22.575L1341.4 22.839L1341.4 36.523L1343.58 36.743L1343.58 37.821L1336.8 37.821L1336.8 36.743L1339.07 36.501L1339.09 22.839L1334.62 22.839L1334.62 24.819ZM1352.43 27.899C1354.22 27.899 1355.59 28.3243 1356.54 29.175C1357.49 30.011 1357.97 31.1843 1357.97 32.695C1357.97 34.3817 1357.44 35.687 1356.36 36.611C1355.29 37.535 1353.88 37.997 1352.12 37.997C1351.88 37.997 1351.63 37.9897 1351.37 37.975C1351.12 37.9603 1350.86 37.9457 1350.6 37.931C1349.75 37.8577 1348.99 37.821 1348.33 37.821L1345.34 37.821L1345.34 36.743L1347.19 36.523L1347.19 22.817L1345.41 22.531L1345.41 21.475L1351.68 21.475L1351.68 22.531L1349.52 22.817L1349.52 27.921L1352.43 27.899ZM1349.52 36.611C1349.9 36.6843 1350.23 36.7357 1350.51 36.765C1350.81 36.7943 1351.2 36.809 1351.7 36.809C1352.93 36.809 1353.87 36.4643 1354.52 35.775C1355.18 35.0857 1355.51 34.103 1355.51 32.827C1355.51 31.6097 1355.18 30.7003 1354.54 30.099C1353.89 29.483 1352.97 29.175 1351.77 29.175L1349.52 29.197L1349.52 36.611ZM1364.95 22.641L1361.17 22.773L1360.4 27.371L1358.95 27.371L1359.32 21.475L1373.03 21.475L1373.29 27.371L1371.91 27.371L1371.18 22.773L1367.37 22.641L1367.37 36.523L1370.5 36.743L1370.5 37.821L1362.09 37.821L1362.09 36.743L1364.95 36.523L1364.95 22.641ZM1382.23 34.433C1382.17 34.5503 1382 34.9683 1381.7 35.687C1381.41 36.391 1380.99 36.963 1380.45 37.403C1379.91 37.843 1379.28 38.063 1378.56 38.063C1378.18 38.063 1377.8 38.0263 1377.41 37.953C1377.05 37.8943 1376.75 37.8137 1376.51 37.711L1376.51 36.149L1378.07 36.171C1378.75 36.171 1379.25 36.039 1379.57 35.775C1379.89 35.4963 1380.17 35.005 1380.41 34.301L1374.86 22.839L1373.67 22.575L1373.67 21.475L1379.61 21.475L1379.61 22.575L1377.46 22.839L1381 30.495L1381.66 32.497L1382.39 30.473L1385.18 22.839L1383.31 22.575L1383.31 21.475L1388.02 21.475L1388.02 22.575L1386.87 22.839L1382.23 34.433ZM1390.55 22.839L1388.83 22.575L1388.83 21.475L1391.76 21.475C1392.28 21.475 1392.8 21.453 1393.32 21.409C1394.11 21.3503 1394.86 21.321 1395.56 21.321C1397.69 21.3357 1399.19 21.7317 1400.07 22.509C1400.95 23.2863 1401.39 24.4597 1401.39 26.029C1401.39 27.2023 1401.12 28.2217 1400.58 29.087C1400.04 29.9523 1399.28 30.6123 1398.31 31.067C1397.36 31.5217 1396.26 31.749 1395.01 31.749C1394.59 31.749 1394.15 31.7417 1393.71 31.727C1393.27 31.6977 1393 31.6757 1392.9 31.661L1392.9 36.501L1395.91 36.743L1395.91 37.821L1388.72 37.821L1388.72 36.743L1390.55 36.523L1390.55 22.839ZM1392.9 30.451C1393.31 30.5243 1394.01 30.561 1395.01 30.561C1396.17 30.561 1397.11 30.209 1397.83 29.505C1398.56 28.801 1398.93 27.6497 1398.93 26.051C1398.93 24.7897 1398.61 23.8877 1397.98 23.345C1397.35 22.7877 1396.37 22.509 1395.03 22.509C1394.56 22.509 1394.07 22.5383 1393.54 22.597C1393.22 22.6263 1393 22.641 1392.9 22.641L1392.9 30.451ZM1410.38 34.433C1410.32 34.5503 1410.14 34.9683 1409.85 35.687C1409.56 36.391 1409.14 36.963 1408.6 37.403C1408.05 37.843 1407.42 38.063 1406.7 38.063C1406.32 38.063 1405.94 38.0263 1405.56 37.953C1405.19 37.8943 1404.89 37.8137 1404.66 37.711L1404.66 36.149L1406.22 36.171C1406.89 36.171 1407.39 36.039 1407.72 35.775C1408.04 35.4963 1408.32 35.005 1408.55 34.301L1403.01 22.839L1401.82 22.575L1401.82 21.475L1407.76 21.475L1407.76 22.575L1405.6 22.839L1409.15 30.495L1409.81 32.497L1410.53 30.473L1413.33 22.839L1411.46 22.575L1411.46 21.475L1416.16 21.475L1416.16 22.575L1415.02 22.839L1410.38 34.433ZM1419.59 34.521C1420.09 34.521 1420.5 34.763 1420.82 35.247C1421.15 35.7163 1421.31 36.3617 1421.31 37.183C1421.31 38.019 1421.18 38.8257 1420.91 39.603C1420.65 40.3803 1420.32 41.0403 1419.92 41.583C1419.53 42.1403 1419.14 42.529 1418.76 42.749L1418.73 42.749L1417.99 42.221L1417.99 41.979C1418.28 41.7443 1418.57 41.231 1418.87 40.439C1419.17 39.6617 1419.33 38.921 1419.33 38.217C1419.33 37.997 1419.28 37.821 1419.2 37.689C1419.12 37.5423 1419 37.3737 1418.82 37.183C1418.62 36.963 1418.46 36.7577 1418.36 36.567C1418.26 36.3763 1418.21 36.1197 1418.21 35.797C1418.21 35.4157 1418.32 35.1077 1418.56 34.873C1418.81 34.6383 1419.12 34.521 1419.48 34.521L1419.59 34.521ZM1431.28 22.839L1429.54 22.575L1429.54 21.475L1435.53 21.475L1435.53 22.575L1433.63 22.839L1433.63 28.757L1441.38 28.757L1441.38 22.839L1439.6 22.575L1439.6 21.475L1445.49 21.475L1445.49 22.575L1443.75 22.839L1443.75 36.523L1445.49 36.743L1445.49 37.821L1439.57 37.821L1439.57 36.743L1441.38 36.523L1441.38 30.121L1433.63 30.121L1433.63 36.523L1435.55 36.743L1435.55 37.821L1429.5 37.821L1429.5 36.743L1431.28 36.523L1431.28 22.839ZM1454.3 38.063C1452.8 38.063 1451.53 37.7183 1450.49 37.029C1449.46 36.3397 1448.69 35.3717 1448.16 34.125C1447.63 32.8637 1447.37 31.4043 1447.37 29.747C1447.37 28.0603 1447.68 26.579 1448.31 25.303C1448.96 24.027 1449.84 23.0443 1450.95 22.355C1452.07 21.651 1453.32 21.299 1454.71 21.299C1457 21.299 1458.75 22.025 1459.95 23.477C1461.17 24.9143 1461.78 26.909 1461.78 29.461C1461.78 31.177 1461.45 32.6877 1460.79 33.993C1460.14 35.2837 1459.25 36.2883 1458.1 37.007C1456.97 37.711 1455.7 38.063 1454.3 38.063ZM1454.58 22.443C1453.16 22.443 1452.04 23.0663 1451.22 24.313C1450.39 25.545 1449.98 27.3563 1449.98 29.747C1449.98 31.947 1450.38 33.6923 1451.17 34.983C1451.98 36.259 1453.1 36.897 1454.54 36.897C1455.95 36.897 1457.06 36.259 1457.88 34.983C1458.72 33.707 1459.14 31.8737 1459.14 29.483C1459.14 27.2683 1458.74 25.545 1457.95 24.313C1457.16 23.0663 1456.03 22.443 1454.58 22.443ZM1475.08 21.475L1475.08 22.575L1472.93 22.839L1472.93 33.883L1474.73 31.177L1481.07 23.433L1481.07 22.839L1479.11 22.575L1479.11 21.475L1485.16 21.475L1485.16 22.575L1483.4 22.839L1483.4 36.523L1485.27 36.743L1485.27 37.821L1479.13 37.821L1479.13 36.743L1481.07 36.523L1481.07 25.325L1479.44 27.877L1472.93 35.731L1472.93 36.523L1475 36.743L1475 37.821L1468.79 37.821L1468.79 36.743L1470.62 36.523L1470.62 22.839L1468.86 22.575L1468.86 21.475L1475.08 21.475ZM1492.77 22.135C1493.14 22.1203 1493.61 22.025 1494.18 21.849C1494.83 21.673 1495.41 21.541 1495.94 21.453C1496.48 21.3503 1497.14 21.299 1497.92 21.299C1499.48 21.299 1500.81 21.6583 1501.93 22.377C1503.04 23.081 1503.88 24.071 1504.46 25.347C1505.04 26.623 1505.34 28.097 1505.34 29.769C1505.34 31.4117 1505.01 32.8637 1504.37 34.125C1503.72 35.3717 1502.81 36.3397 1501.64 37.029C1500.47 37.7183 1499.11 38.063 1497.57 38.063C1496.95 38.063 1496.42 38.019 1495.96 37.931C1495.51 37.843 1494.99 37.7183 1494.4 37.557C1493.74 37.3517 1493.24 37.249 1492.88 37.249L1492.49 33.993L1494.01 33.751L1494.89 35.929C1495.21 36.1783 1495.59 36.391 1496.03 36.567C1496.48 36.743 1497.1 36.831 1497.88 36.831C1498.8 36.831 1499.62 36.5743 1500.32 36.061C1501.04 35.533 1501.6 34.7703 1502.01 33.773C1502.42 32.761 1502.64 31.551 1502.65 30.143L1495.46 30.341L1495.46 28.559L1502.59 28.757C1502.44 26.909 1501.96 25.4057 1501.13 24.247C1500.33 23.0883 1499.21 22.509 1497.77 22.509C1497.02 22.509 1496.44 22.6043 1496.03 22.795C1495.62 22.971 1495.24 23.213 1494.89 23.521L1494.29 25.633L1492.73 25.633L1492.77 22.135ZM1514.62 29.263C1515.21 29.483 1515.8 29.9743 1516.38 30.737C1516.97 31.485 1517.67 32.5043 1518.49 33.795C1519.05 34.7043 1519.48 35.3717 1519.79 35.797C1520.1 36.2077 1520.36 36.4423 1520.58 36.501L1521.42 36.743L1521.42 37.821L1518.69 37.821C1518.36 37.821 1517.97 37.535 1517.55 36.963C1517.14 36.3763 1516.6 35.489 1515.94 34.301C1515.19 32.9663 1514.57 31.9543 1514.07 31.265C1513.57 30.5757 1513.1 30.231 1512.64 30.231L1511.23 30.231L1511.23 36.501L1513.19 36.765L1513.19 37.821L1507.16 37.821L1507.16 36.721L1508.95 36.501L1508.95 22.839L1507.16 22.575L1507.16 21.475L1513.06 21.475L1513.06 22.575L1511.23 22.839L1511.23 29.175L1513.13 29.175L1517.57 22.839L1515.72 22.575L1515.72 21.475L1521.13 21.475L1521.13 22.575L1519.4 22.839L1514.62 29.263ZM1529.23 38.063C1527.74 38.063 1526.47 37.7183 1525.43 37.029C1524.4 36.3397 1523.62 35.3717 1523.09 34.125C1522.57 32.8637 1522.3 31.4043 1522.3 29.747C1522.3 28.0603 1522.62 26.579 1523.25 25.303C1523.89 24.027 1524.77 23.0443 1525.89 22.355C1527 21.651 1528.26 21.299 1529.65 21.299C1531.94 21.299 1533.68 22.025 1534.89 23.477C1536.1 24.9143 1536.71 26.909 1536.71 29.461C1536.71 31.177 1536.38 32.6877 1535.72 33.993C1535.08 35.2837 1534.18 36.2883 1533.04 37.007C1531.91 37.711 1530.64 38.063 1529.23 38.063ZM1529.52 22.443C1528.1 22.443 1526.97 23.0663 1526.15 24.313C1525.33 25.545 1524.92 27.3563 1524.92 29.747C1524.92 31.947 1525.32 33.6923 1526.11 34.983C1526.92 36.259 1528.04 36.897 1529.47 36.897C1530.88 36.897 1532 36.259 1532.82 34.983C1533.65 33.707 1534.07 31.8737 1534.07 29.483C1534.07 27.2683 1533.68 25.545 1532.88 24.313C1532.09 23.0663 1530.97 22.443 1529.52 22.443ZM1540.31 22.839L1538.58 22.575L1538.58 21.475L1544.56 21.475L1544.56 22.575L1542.67 22.839L1542.67 28.757L1550.41 28.757L1550.41 22.839L1548.63 22.575L1548.63 21.475L1554.53 21.475L1554.53 22.575L1552.79 22.839L1552.79 36.523L1554.53 36.743L1554.53 37.821L1548.61 37.821L1548.61 36.743L1550.41 36.523L1550.41 30.121L1542.67 30.121L1542.67 36.523L1544.58 36.743L1544.58 37.821L1538.53 37.821L1538.53 36.743L1540.31 36.523L1540.31 22.839ZM1563.33 38.063C1561.83 38.063 1560.56 37.7183 1559.52 37.029C1558.5 36.3397 1557.72 35.3717 1557.19 34.125C1556.66 32.8637 1556.4 31.4043 1556.4 29.747C1556.4 28.0603 1556.71 26.579 1557.34 25.303C1557.99 24.027 1558.87 23.0443 1559.98 22.355C1561.1 21.651 1562.35 21.299 1563.75 21.299C1566.03 21.299 1567.78 22.025 1568.98 23.477C1570.2 24.9143 1570.81 26.909 1570.81 29.461C1570.81 31.177 1570.48 32.6877 1569.82 33.993C1569.17 35.2837 1568.28 36.2883 1567.13 37.007C1566.01 37.711 1564.74 38.063 1563.33 38.063ZM1563.61 22.443C1562.19 22.443 1561.07 23.0663 1560.25 24.313C1559.43 25.545 1559.02 27.3563 1559.02 29.747C1559.02 31.947 1559.41 33.6923 1560.2 34.983C1561.01 36.259 1562.13 36.897 1563.57 36.897C1564.98 36.897 1566.09 36.259 1566.91 34.983C1567.75 33.707 1568.17 31.8737 1568.17 29.483C1568.17 27.2683 1567.77 25.545 1566.98 24.313C1566.19 23.0663 1565.07 22.443 1563.61 22.443ZM1575.14 22.839L1572.74 22.575L1572.74 21.475L1578.57 21.475L1581.67 31.375L1582.4 34.169L1583.06 31.375L1586.14 21.475L1591.92 21.475L1591.92 22.575L1589.5 22.839L1591.26 36.501L1593.18 36.743L1593.18 37.821L1586.84 37.821L1586.84 36.743L1588.84 36.523L1587.85 26.645L1587.39 22.399L1586.47 25.567L1582.79 37.073L1581.36 37.073L1577.8 26.535L1576.5 22.377L1576.1 26.645L1575.22 36.523L1577.4 36.743L1577.4 37.821L1571.66 37.821L1571.66 36.743L1573.53 36.523L1575.14 22.839ZM1600.68 21.475L1600.68 22.575L1598.53 22.839L1598.53 33.883L1600.33 31.177L1606.67 23.433L1606.67 22.839L1604.71 22.575L1604.71 21.475L1610.76 21.475L1610.76 22.575L1609 22.839L1609 36.523L1610.87 36.743L1610.87 37.821L1604.73 37.821L1604.73 36.743L1606.67 36.523L1606.67 25.325L1605.04 27.877L1598.53 35.731L1598.53 36.523L1600.59 36.743L1600.59 37.821L1594.39 37.821L1594.39 36.743L1596.22 36.523L1596.22 22.839L1594.46 22.575L1594.46 21.475L1600.68 21.475ZM1620.43 29.263C1621.02 29.483 1621.61 29.9743 1622.19 30.737C1622.78 31.485 1623.48 32.5043 1624.3 33.795C1624.86 34.7043 1625.29 35.3717 1625.6 35.797C1625.91 36.2077 1626.18 36.4423 1626.4 36.501L1627.23 36.743L1627.23 37.821L1624.5 37.821C1624.17 37.821 1623.78 37.535 1623.36 36.963C1622.95 36.3763 1622.41 35.489 1621.75 34.301C1621.01 32.9663 1620.38 31.9543 1619.88 31.265C1619.38 30.5757 1618.91 30.231 1618.45 30.231L1617.04 30.231L1617.04 36.501L1619 36.765L1619 37.821L1612.97 37.821L1612.97 36.721L1614.76 36.501L1614.76 22.839L1612.97 22.575L1612.97 21.475L1618.87 21.475L1618.87 22.575L1617.04 22.839L1617.04 29.175L1618.94 29.175L1623.38 22.839L1621.53 22.575L1621.53 21.475L1626.95 21.475L1626.95 22.575L1625.21 22.839L1620.43 29.263ZM1635.79 34.433C1635.73 34.5503 1635.56 34.9683 1635.26 35.687C1634.97 36.391 1634.55 36.963 1634.01 37.403C1633.47 37.843 1632.84 38.063 1632.12 38.063C1631.74 38.063 1631.35 38.0263 1630.97 37.953C1630.61 37.8943 1630.31 37.8137 1630.07 37.711L1630.07 36.149L1631.63 36.171C1632.31 36.171 1632.81 36.039 1633.13 35.775C1633.45 35.4963 1633.73 35.005 1633.97 34.301L1628.42 22.839L1627.23 22.575L1627.23 21.475L1633.17 21.475L1633.17 22.575L1631.02 22.839L1634.56 30.495L1635.22 32.497L1635.95 30.473L1638.74 22.839L1636.87 22.575L1636.87 21.475L1641.58 21.475L1641.58 22.575L1640.43 22.839L1635.79 34.433ZM1645.73 32.585L1644.32 32.585L1643.66 18.395L1646.35 18.395L1645.73 32.585ZM1643.58 36.655C1643.58 36.215 1643.75 35.841 1644.08 35.533C1644.42 35.225 1644.8 35.071 1645.23 35.071C1645.7 35.071 1646.06 35.203 1646.3 35.467C1646.55 35.731 1646.68 36.061 1646.68 36.457C1646.68 36.9263 1646.51 37.3077 1646.17 37.601C1645.85 37.8943 1645.45 38.041 1644.98 38.041C1644.6 38.041 1644.27 37.9163 1643.99 37.667C1643.72 37.403 1643.58 37.0657 1643.58 36.655Z" fill="#FFFFFF" fill-opacity="1.000000" fill-rule="evenodd"/>
	<circle id="Ellipse 10" cx="1664.000000" cy="30.000000" r="3.000000" fill="#FFFFFF" fill-opacity="1.000000"/>
	<path id="Лед тронулся, господа присяжные заседатели!" d="M1685.72 24.819C1685.72 27.459 1685.56 29.791 1685.25 31.815C1684.96 33.8243 1684.51 35.3497 1683.91 36.391C1683.6 36.919 1683.25 37.3077 1682.86 37.557C1682.46 37.8063 1681.99 37.931 1681.45 37.931C1680.74 37.931 1680.22 37.8943 1679.89 37.821L1679.73 36.039C1680.07 36.083 1680.62 36.105 1681.38 36.105C1681.66 36.105 1681.9 36.0463 1682.11 35.929C1682.31 35.797 1682.5 35.577 1682.68 35.269C1683.79 33.5383 1684.35 29.9743 1684.35 24.577L1684.35 22.839L1681.82 22.575L1681.82 21.475L1694.54 21.475L1694.54 22.575L1692.49 22.839L1692.49 36.523L1694.67 36.743L1694.67 37.821L1687.89 37.821L1687.89 36.743L1690.16 36.501L1690.18 22.839L1685.72 22.839L1685.72 24.819ZM1698.24 22.839L1696.44 22.575L1696.44 21.475L1707.63 21.475L1707.94 24.885L1706.69 24.885L1706.05 22.751L1700.59 22.619L1700.59 28.823L1704.27 28.757L1704.58 26.931L1705.79 26.931L1705.79 31.991L1704.58 31.991L1704.27 30.099L1700.59 30.033L1700.59 36.589L1706.8 36.369L1707.96 33.597L1709.26 33.993L1708.62 37.821L1696.41 37.821L1696.41 36.743L1698.24 36.523L1698.24 22.839ZM1724.87 36.501C1724.87 36.6917 1724.79 37.6303 1724.63 39.317C1724.47 41.0037 1724.38 41.869 1724.36 41.913L1722.95 41.913C1722.93 41.3703 1722.86 40.5783 1722.76 39.537C1722.67 38.4957 1722.6 37.9237 1722.56 37.821L1712.5 37.821C1712.45 37.8797 1712.3 38.437 1712.06 39.493C1711.84 40.549 1711.68 41.363 1711.56 41.935L1710.13 41.935C1710.14 41.3483 1710.17 40.4683 1710.22 39.295C1710.28 38.1363 1710.33 37.205 1710.37 36.501L1711.98 36.501C1712.33 36.061 1712.71 35.3423 1713.12 34.345C1713.55 33.333 1713.93 31.969 1714.26 30.253C1714.6 28.5223 1714.77 26.4983 1714.77 24.181L1714.77 22.839L1712.5 22.575L1712.5 21.475L1724.96 21.475L1724.96 22.575L1722.89 22.839L1722.89 36.501L1724.87 36.501ZM1716.13 24.313C1716.15 26.3957 1716.02 28.2877 1715.76 29.989C1715.5 31.6757 1715.18 33.069 1714.81 34.169C1714.46 35.269 1714.14 36.0463 1713.85 36.501L1720.56 36.501L1720.58 22.751L1716.13 22.751L1716.13 24.313ZM1737.49 22.641L1733.71 22.773L1732.94 27.371L1731.48 27.371L1731.86 21.475L1745.56 21.475L1745.83 27.371L1744.44 27.371L1743.72 22.773L1739.91 22.641L1739.91 36.523L1743.03 36.743L1743.03 37.821L1734.63 37.821L1734.63 36.743L1737.49 36.523L1737.49 22.641ZM1749.22 22.839L1747.51 22.575L1747.51 21.475L1750.43 21.475C1750.96 21.475 1751.48 21.453 1752 21.409C1752.79 21.3503 1753.54 21.321 1754.24 21.321C1756.37 21.3357 1757.87 21.7317 1758.75 22.509C1759.63 23.2863 1760.07 24.4597 1760.07 26.029C1760.07 27.2023 1759.8 28.2217 1759.26 29.087C1758.71 29.9523 1757.96 30.6123 1756.99 31.067C1756.04 31.5217 1754.94 31.749 1753.69 31.749C1753.26 31.749 1752.83 31.7417 1752.39 31.727C1751.95 31.6977 1751.68 31.6757 1751.58 31.661L1751.58 36.501L1754.59 36.743L1754.59 37.821L1747.4 37.821L1747.4 36.743L1749.22 36.523L1749.22 22.839ZM1751.58 30.451C1751.99 30.5243 1752.69 30.561 1753.69 30.561C1754.85 30.561 1755.79 30.209 1756.51 29.505C1757.24 28.801 1757.61 27.6497 1757.61 26.051C1757.61 24.7897 1757.29 23.8877 1756.66 23.345C1756.03 22.7877 1755.05 22.509 1753.71 22.509C1753.24 22.509 1752.74 22.5383 1752.22 22.597C1751.89 22.6263 1751.68 22.641 1751.58 22.641L1751.58 30.451ZM1768.31 38.063C1766.81 38.063 1765.54 37.7183 1764.5 37.029C1763.47 36.3397 1762.7 35.3717 1762.17 34.125C1761.64 32.8637 1761.38 31.4043 1761.38 29.747C1761.38 28.0603 1761.69 26.579 1762.32 25.303C1762.97 24.027 1763.85 23.0443 1764.96 22.355C1766.08 21.651 1767.33 21.299 1768.72 21.299C1771.01 21.299 1772.76 22.025 1773.96 23.477C1775.18 24.9143 1775.79 26.909 1775.79 29.461C1775.79 31.177 1775.46 32.6877 1774.8 33.993C1774.15 35.2837 1773.26 36.2883 1772.11 37.007C1770.98 37.711 1769.71 38.063 1768.31 38.063ZM1768.59 22.443C1767.17 22.443 1766.05 23.0663 1765.23 24.313C1764.41 25.545 1763.99 27.3563 1763.99 29.747C1763.99 31.947 1764.39 33.6923 1765.18 34.983C1765.99 36.259 1767.11 36.897 1768.55 36.897C1769.96 36.897 1771.07 36.259 1771.89 34.983C1772.73 33.707 1773.15 31.8737 1773.15 29.483C1773.15 27.2683 1772.75 25.545 1771.96 24.313C1771.17 23.0663 1770.04 22.443 1768.59 22.443ZM1779.39 22.839L1777.65 22.575L1777.65 21.475L1783.63 21.475L1783.63 22.575L1781.74 22.839L1781.74 28.757L1789.49 28.757L1789.49 22.839L1787.7 22.575L1787.7 21.475L1793.6 21.475L1793.6 22.575L1791.86 22.839L1791.86 36.523L1793.6 36.743L1793.6 37.821L1787.68 37.821L1787.68 36.743L1789.49 36.523L1789.49 30.121L1781.74 30.121L1781.74 36.523L1783.66 36.743L1783.66 37.821L1777.61 37.821L1777.61 36.743L1779.39 36.523L1779.39 22.839ZM1803.15 34.433C1803.09 34.5503 1802.92 34.9683 1802.62 35.687C1802.33 36.391 1801.91 36.963 1801.37 37.403C1800.83 37.843 1800.2 38.063 1799.48 38.063C1799.1 38.063 1798.71 38.0263 1798.33 37.953C1797.97 37.8943 1797.67 37.8137 1797.43 37.711L1797.43 36.149L1798.99 36.171C1799.67 36.171 1800.17 36.039 1800.49 35.775C1800.81 35.4963 1801.09 35.005 1801.32 34.301L1795.78 22.839L1794.59 22.575L1794.59 21.475L1800.53 21.475L1800.53 22.575L1798.38 22.839L1801.92 30.495L1802.58 32.497L1803.3 30.473L1806.1 22.839L1804.23 22.575L1804.23 21.475L1808.94 21.475L1808.94 22.575L1807.79 22.839L1803.15 34.433ZM1815.09 24.819C1815.09 27.459 1814.94 29.791 1814.63 31.815C1814.34 33.8243 1813.89 35.3497 1813.29 36.391C1812.98 36.919 1812.63 37.3077 1812.23 37.557C1811.84 37.8063 1811.37 37.931 1810.83 37.931C1810.12 37.931 1809.6 37.8943 1809.26 37.821L1809.11 36.039C1809.45 36.083 1810 36.105 1810.76 36.105C1811.04 36.105 1811.28 36.0463 1811.49 35.929C1811.69 35.797 1811.88 35.577 1812.06 35.269C1813.17 33.5383 1813.73 29.9743 1813.73 24.577L1813.73 22.839L1811.2 22.575L1811.2 21.475L1823.92 21.475L1823.92 22.575L1821.87 22.839L1821.87 36.523L1824.05 36.743L1824.05 37.821L1817.27 37.821L1817.27 36.743L1819.54 36.501L1819.56 22.839L1815.09 22.839L1815.09 24.819ZM1833.1 38.063C1831.48 38.063 1830.11 37.7183 1828.96 37.029C1827.83 36.325 1826.97 35.3423 1826.39 34.081C1825.8 32.8197 1825.51 31.3383 1825.51 29.637C1825.51 27.9943 1825.85 26.5423 1826.54 25.281C1827.23 24.0197 1828.18 23.0443 1829.38 22.355C1830.58 21.651 1831.93 21.299 1833.43 21.299C1834.56 21.299 1835.91 21.475 1837.5 21.827L1838.22 21.959L1838 25.919L1836.53 25.919L1835.98 23.125C1835.77 22.949 1835.41 22.8023 1834.9 22.685C1834.4 22.553 1833.79 22.487 1833.05 22.487C1832.11 22.487 1831.28 22.7583 1830.55 23.301C1829.81 23.829 1829.23 24.6137 1828.81 25.655C1828.4 26.6963 1828.19 27.943 1828.19 29.395C1828.19 30.7737 1828.37 32.0277 1828.74 33.157C1829.11 34.2863 1829.67 35.1883 1830.41 35.863C1831.16 36.523 1832.09 36.853 1833.19 36.853C1833.96 36.853 1834.56 36.787 1834.97 36.655C1835.39 36.523 1835.75 36.3323 1836.05 36.083L1836.97 33.927L1838.36 34.103L1837.83 37.227C1837.52 37.2417 1837.06 37.3443 1836.46 37.535C1835.94 37.6963 1835.42 37.821 1834.92 37.909C1834.44 38.0117 1833.83 38.063 1833.1 38.063ZM1847.32 30.671L1846.24 30.671C1845.89 30.9203 1845.53 31.3823 1845.16 32.057C1844.81 32.7317 1844.41 33.6117 1843.95 34.697C1843.5 35.7383 1843.12 36.523 1842.83 37.051C1842.55 37.5643 1842.29 37.821 1842.06 37.821L1839.07 37.821L1839.07 36.743L1839.92 36.501C1840.14 36.457 1840.37 36.2517 1840.61 35.885C1840.86 35.5037 1841.21 34.8877 1841.68 34.037C1842.17 33.069 1842.62 32.277 1843.03 31.661C1843.44 31.045 1843.85 30.6197 1844.28 30.385C1843.28 30.1063 1842.5 29.5783 1841.93 28.801C1841.37 28.009 1841.09 27.063 1841.09 25.963C1841.09 24.203 1841.61 22.9857 1842.65 22.311C1843.71 21.6363 1845.21 21.299 1847.16 21.299C1847.59 21.299 1848.14 21.3283 1848.81 21.387C1849.52 21.4457 1850.05 21.475 1850.42 21.475L1853.61 21.475L1853.61 22.575L1851.76 22.839L1851.76 36.523L1853.78 36.743L1853.78 37.821L1847.29 37.821L1847.29 36.743L1849.41 36.523L1849.41 30.671L1847.32 30.671ZM1848.83 22.597C1848.17 22.5237 1847.59 22.487 1847.07 22.487C1845.93 22.487 1845.05 22.729 1844.43 23.213C1843.83 23.697 1843.53 24.5623 1843.53 25.809C1843.53 26.997 1843.83 27.9063 1844.43 28.537C1845.05 29.1677 1845.93 29.483 1847.07 29.483C1848.25 29.483 1849.02 29.461 1849.41 29.417L1849.41 22.663L1848.83 22.597ZM1858.43 34.521C1858.93 34.521 1859.34 34.763 1859.66 35.247C1859.98 35.7163 1860.14 36.3617 1860.14 37.183C1860.14 38.019 1860.01 38.8257 1859.75 39.603C1859.48 40.3803 1859.15 41.0403 1858.76 41.583C1858.36 42.1403 1857.97 42.529 1857.59 42.749L1857.57 42.749L1856.82 42.221L1856.82 41.979C1857.12 41.7443 1857.41 41.231 1857.7 40.439C1858.01 39.6617 1858.16 38.921 1858.16 38.217C1858.16 37.997 1858.12 37.821 1858.03 37.689C1857.96 37.5423 1857.83 37.3737 1857.66 37.183C1857.45 36.963 1857.3 36.7577 1857.2 36.567C1857.09 36.3763 1857.04 36.1197 1857.04 35.797C1857.04 35.4157 1857.16 35.1077 1857.39 34.873C1857.64 34.6383 1857.95 34.521 1858.32 34.521L1858.43 34.521ZM1879.44 21.475L1879.6 27.261L1878.12 27.261L1877.49 22.795L1872.65 22.619L1872.65 36.501L1876.47 36.743L1876.47 37.821L1867.85 37.821L1867.85 36.743L1870.27 36.501L1870.27 22.861L1867.92 22.553L1867.92 21.475L1879.44 21.475ZM1887.59 38.063C1886.09 38.063 1884.82 37.7183 1883.78 37.029C1882.76 36.3397 1881.98 35.3717 1881.45 34.125C1880.92 32.8637 1880.66 31.4043 1880.66 29.747C1880.66 28.0603 1880.97 26.579 1881.6 25.303C1882.25 24.027 1883.13 23.0443 1884.24 22.355C1885.36 21.651 1886.61 21.299 1888.01 21.299C1890.29 21.299 1892.04 22.025 1893.24 23.477C1894.46 24.9143 1895.07 26.909 1895.07 29.461C1895.07 31.177 1894.74 32.6877 1894.08 33.993C1893.43 35.2837 1892.54 36.2883 1891.39 37.007C1890.26 37.711 1889 38.063 1887.59 38.063ZM1887.87 22.443C1886.45 22.443 1885.33 23.0663 1884.51 24.313C1883.69 25.545 1883.28 27.3563 1883.28 29.747C1883.28 31.947 1883.67 33.6923 1884.46 34.983C1885.27 36.259 1886.39 36.897 1887.83 36.897C1889.24 36.897 1890.35 36.259 1891.17 34.983C1892.01 33.707 1892.43 31.8737 1892.43 29.483C1892.43 27.2683 1892.03 25.545 1891.24 24.313C1890.45 23.0663 1889.33 22.443 1887.87 22.443ZM1904.1 38.063C1902.49 38.063 1901.11 37.7183 1899.97 37.029C1898.84 36.325 1897.98 35.3423 1897.39 34.081C1896.81 32.8197 1896.51 31.3383 1896.51 29.637C1896.51 27.9943 1896.86 26.5423 1897.55 25.281C1898.24 24.0197 1899.18 23.0443 1900.39 22.355C1901.59 21.651 1902.94 21.299 1904.43 21.299C1905.56 21.299 1906.92 21.475 1908.5 21.827L1909.23 21.959L1909.01 25.919L1907.54 25.919L1906.99 23.125C1906.78 22.949 1906.42 22.8023 1905.91 22.685C1905.41 22.553 1904.79 22.487 1904.06 22.487C1903.12 22.487 1902.28 22.7583 1901.55 23.301C1900.82 23.829 1900.24 24.6137 1899.81 25.655C1899.4 26.6963 1899.2 27.943 1899.2 29.395C1899.2 30.7737 1899.38 32.0277 1899.75 33.157C1900.11 34.2863 1900.67 35.1883 1901.42 35.863C1902.17 36.523 1903.09 36.853 1904.19 36.853C1904.97 36.853 1905.56 36.787 1905.97 36.655C1906.4 36.523 1906.76 36.3323 1907.05 36.083L1907.98 33.927L1909.36 34.103L1908.83 37.227C1908.53 37.2417 1908.07 37.3443 1907.47 37.535C1906.94 37.6963 1906.43 37.821 1905.93 37.909C1905.45 38.0117 1904.84 38.063 1904.1 38.063ZM1926.64 21.475L1926.64 22.575L1924.77 22.861L1924.77 36.501L1926.81 36.743L1926.81 37.821L1920.61 37.821L1920.61 36.743L1922.44 36.501L1922.44 22.773L1915.4 22.773L1915.4 36.523L1917.44 36.743L1917.44 37.821L1911.28 37.821L1911.28 36.743L1913.06 36.523L1913.06 22.839L1911.19 22.575L1911.19 21.475L1926.64 21.475ZM1935.35 38.063C1933.85 38.063 1932.58 37.7183 1931.54 37.029C1930.52 36.3397 1929.74 35.3717 1929.21 34.125C1928.68 32.8637 1928.42 31.4043 1928.42 29.747C1928.42 28.0603 1928.73 26.579 1929.36 25.303C1930.01 24.027 1930.89 23.0443 1932 22.355C1933.12 21.651 1934.37 21.299 1935.77 21.299C1938.05 21.299 1939.8 22.025 1941 23.477C1942.22 24.9143 1942.83 26.909 1942.83 29.461C1942.83 31.177 1942.5 32.6877 1941.84 33.993C1941.19 35.2837 1940.3 36.2883 1939.15 37.007C1938.02 37.711 1936.76 38.063 1935.35 38.063ZM1935.63 22.443C1934.21 22.443 1933.09 23.0663 1932.27 24.313C1931.45 25.545 1931.04 27.3563 1931.04 29.747C1931.04 31.947 1931.43 33.6923 1932.22 34.983C1933.03 36.259 1934.15 36.897 1935.59 36.897C1937 36.897 1938.11 36.259 1938.93 34.983C1939.77 33.707 1940.19 31.8737 1940.19 29.483C1940.19 27.2683 1939.79 25.545 1939 24.313C1938.21 23.0663 1937.09 22.443 1935.63 22.443ZM1958.68 36.501C1958.68 36.6917 1958.6 37.6303 1958.44 39.317C1958.28 41.0037 1958.19 41.869 1958.18 41.913L1956.77 41.913C1956.74 41.3703 1956.67 40.5783 1956.57 39.537C1956.48 38.4957 1956.42 37.9237 1956.37 37.821L1946.32 37.821C1946.26 37.8797 1946.11 38.437 1945.88 39.493C1945.66 40.549 1945.49 41.363 1945.37 41.935L1943.94 41.935C1943.96 41.3483 1943.99 40.4683 1944.03 39.295C1944.09 38.1363 1944.14 37.205 1944.18 36.501L1945.79 36.501C1946.14 36.061 1946.52 35.3423 1946.93 34.345C1947.36 33.333 1947.74 31.969 1948.08 30.253C1948.42 28.5223 1948.58 26.4983 1948.58 24.181L1948.58 22.839L1946.32 22.575L1946.32 21.475L1958.77 21.475L1958.77 22.575L1956.7 22.839L1956.7 36.501L1958.68 36.501ZM1949.95 24.313C1949.96 26.3957 1949.84 28.2877 1949.57 29.989C1949.31 31.6757 1949 33.069 1948.63 34.169C1948.28 35.269 1947.95 36.0463 1947.66 36.501L1954.37 36.501L1954.39 22.751L1949.95 22.751L1949.95 24.313ZM1966.08 21.343L1968.5 21.343L1973.85 36.523L1975.21 36.743L1975.21 37.821L1969.41 37.821L1969.41 36.743L1971.23 36.523L1970.2 33.267L1963.77 33.267L1962.74 36.523L1964.63 36.743L1964.63 37.821L1959.42 37.821L1959.42 36.743L1960.78 36.523L1966.08 21.343ZM1967.47 24.863L1966.92 22.927L1966.39 24.907L1964.17 31.969L1969.78 31.969L1967.47 24.863ZM1996.63 21.475L1996.63 22.575L1994.76 22.861L1994.76 36.501L1996.81 36.743L1996.81 37.821L1990.61 37.821L1990.61 36.743L1992.43 36.501L1992.43 22.773L1985.39 22.773L1985.39 36.523L1987.44 36.743L1987.44 37.821L1981.28 37.821L1981.28 36.743L1983.06 36.523L1983.06 22.839L1981.19 22.575L1981.19 21.475L1996.63 21.475ZM2000.55 22.839L1998.83 22.575L1998.83 21.475L2001.76 21.475C2002.29 21.475 2002.81 21.453 2003.32 21.409C2004.11 21.3503 2004.86 21.321 2005.56 21.321C2007.69 21.3357 2009.19 21.7317 2010.07 22.509C2010.95 23.2863 2011.39 24.4597 2011.39 26.029C2011.39 27.2023 2011.12 28.2217 2010.58 29.087C2010.04 29.9523 2009.28 30.6123 2008.31 31.067C2007.36 31.5217 2006.26 31.749 2005.01 31.749C2004.59 31.749 2004.16 31.7417 2003.72 31.727C2003.28 31.6977 2003 31.6757 2002.9 31.661L2002.9 36.501L2005.92 36.743L2005.92 37.821L1998.72 37.821L1998.72 36.743L2000.55 36.523L2000.55 22.839ZM2002.9 30.451C2003.31 30.5243 2004.02 30.561 2005.01 30.561C2006.17 30.561 2007.11 30.209 2007.83 29.505C2008.56 28.801 2008.93 27.6497 2008.93 26.051C2008.93 24.7897 2008.61 23.8877 2007.98 23.345C2007.35 22.7877 2006.37 22.509 2005.04 22.509C2004.57 22.509 2004.07 22.5383 2003.54 22.597C2003.22 22.6263 2003 22.641 2002.9 22.641L2002.9 30.451ZM2019.32 21.475L2019.32 22.575L2017.17 22.839L2017.17 33.883L2018.97 31.177L2025.31 23.433L2025.31 22.839L2023.35 22.575L2023.35 21.475L2029.4 21.475L2029.4 22.575L2027.64 22.839L2027.64 36.523L2029.51 36.743L2029.51 37.821L2023.37 37.821L2023.37 36.743L2025.31 36.523L2025.31 25.325L2023.68 27.877L2017.17 35.731L2017.17 36.523L2019.24 36.743L2019.24 37.821L2013.03 37.821L2013.03 36.743L2014.86 36.523L2014.86 22.839L2013.1 22.575L2013.1 21.475L2019.32 21.475ZM2038.83 38.063C2037.22 38.063 2035.84 37.7183 2034.7 37.029C2033.57 36.325 2032.71 35.3423 2032.12 34.081C2031.53 32.8197 2031.24 31.3383 2031.24 29.637C2031.24 27.9943 2031.59 26.5423 2032.28 25.281C2032.96 24.0197 2033.91 23.0443 2035.11 22.355C2036.32 21.651 2037.67 21.299 2039.16 21.299C2040.29 21.299 2041.65 21.475 2043.23 21.827L2043.96 21.959L2043.74 25.919L2042.26 25.919L2041.71 23.125C2041.51 22.949 2041.15 22.8023 2040.64 22.685C2040.14 22.553 2039.52 22.487 2038.79 22.487C2037.85 22.487 2037.01 22.7583 2036.28 23.301C2035.55 23.829 2034.97 24.6137 2034.54 25.655C2034.13 26.6963 2033.93 27.943 2033.93 29.395C2033.93 30.7737 2034.11 32.0277 2034.48 33.157C2034.84 34.2863 2035.4 35.1883 2036.15 35.863C2036.9 36.523 2037.82 36.853 2038.92 36.853C2039.7 36.853 2040.29 36.787 2040.7 36.655C2041.13 36.523 2041.49 36.3323 2041.78 36.083L2042.7 33.927L2044.09 34.103L2043.56 37.227C2043.25 37.2417 2042.8 37.3443 2042.2 37.535C2041.67 37.6963 2041.16 37.821 2040.66 37.909C2040.17 38.0117 2039.56 38.063 2038.83 38.063ZM2053.05 30.671L2051.97 30.671C2051.62 30.9203 2051.26 31.3823 2050.89 32.057C2050.54 32.7317 2050.14 33.6117 2049.68 34.697C2049.23 35.7383 2048.86 36.523 2048.56 37.051C2048.28 37.5643 2048.03 37.821 2047.79 37.821L2044.8 37.821L2044.8 36.743L2045.66 36.501C2045.88 36.457 2046.11 36.2517 2046.34 35.885C2046.59 35.5037 2046.95 34.8877 2047.42 34.037C2047.9 33.069 2048.35 32.277 2048.76 31.661C2049.17 31.045 2049.59 30.6197 2050.01 30.385C2049.02 30.1063 2048.23 29.5783 2047.66 28.801C2047.1 28.009 2046.82 27.063 2046.82 25.963C2046.82 24.203 2047.35 22.9857 2048.39 22.311C2049.44 21.6363 2050.95 21.299 2052.9 21.299C2053.32 21.299 2053.87 21.3283 2054.55 21.387C2055.25 21.4457 2055.79 21.475 2056.15 21.475L2059.34 21.475L2059.34 22.575L2057.49 22.839L2057.49 36.523L2059.52 36.743L2059.52 37.821L2053.03 37.821L2053.03 36.743L2055.14 36.523L2055.14 30.671L2053.05 30.671ZM2054.57 22.597C2053.91 22.5237 2053.32 22.487 2052.81 22.487C2051.66 22.487 2050.78 22.729 2050.17 23.213C2049.57 23.697 2049.27 24.5623 2049.27 25.809C2049.27 26.997 2049.57 27.9063 2050.17 28.537C2050.78 29.1677 2051.66 29.483 2052.81 29.483C2053.98 29.483 2054.76 29.461 2055.14 29.417L2055.14 22.663L2054.57 22.597ZM2076.37 29.285C2076.96 29.505 2077.55 29.9963 2078.13 30.759C2078.72 31.5217 2079.41 32.541 2080.2 33.817C2080.76 34.697 2081.19 35.3497 2081.5 35.775C2081.82 36.2003 2082.09 36.4423 2082.31 36.501L2083.17 36.743L2083.17 37.821L2080.42 37.821C2080.08 37.821 2079.71 37.535 2079.3 36.963C2078.9 36.391 2078.36 35.5037 2077.67 34.301C2076.91 32.9663 2076.28 31.9543 2075.78 31.265C2075.28 30.5757 2074.8 30.231 2074.35 30.231L2072.96 30.231L2072.96 36.501L2074.9 36.765L2074.9 37.821L2068.87 37.821L2068.87 36.743L2070.72 36.523L2070.72 30.231L2069.33 30.231C2068.88 30.231 2068.39 30.583 2067.88 31.287C2067.37 31.9763 2066.74 32.981 2066.01 34.301C2065.32 35.5037 2064.77 36.391 2064.36 36.963C2063.95 37.535 2063.58 37.821 2063.24 37.821L2060.53 37.821L2060.53 36.743L2061.35 36.501C2061.57 36.4423 2061.83 36.2003 2062.14 35.775C2062.46 35.3497 2062.9 34.697 2063.46 33.817C2064.25 32.5263 2064.94 31.4997 2065.53 30.737C2066.13 29.9743 2066.72 29.483 2067.31 29.263L2062.58 22.839L2060.84 22.575L2060.84 21.475L2066.17 21.475L2066.17 22.575L2064.45 22.839L2068.8 29.175L2070.72 29.175L2070.72 22.839L2068.89 22.575L2068.89 21.475L2074.85 21.475L2074.85 22.575L2072.96 22.839L2072.96 29.175L2074.88 29.175L2079.21 22.861L2077.49 22.575L2077.49 21.475L2082.86 21.475L2082.86 22.575L2081.1 22.839L2076.37 29.285ZM2086.18 22.839L2084.45 22.575L2084.45 21.475L2090.43 21.475L2090.43 22.575L2088.54 22.839L2088.54 28.757L2096.28 28.757L2096.28 22.839L2094.5 22.575L2094.5 21.475L2100.4 21.475L2100.4 22.575L2098.66 22.839L2098.66 36.523L2100.4 36.743L2100.4 37.821L2094.48 37.821L2094.48 36.743L2096.28 36.523L2096.28 30.121L2088.54 30.121L2088.54 36.523L2090.45 36.743L2090.45 37.821L2084.4 37.821L2084.4 36.743L2086.18 36.523L2086.18 22.839ZM2109.64 27.899C2111.43 27.899 2112.8 28.3243 2113.75 29.175C2114.71 30.011 2115.18 31.1843 2115.18 32.695C2115.18 34.3817 2114.65 35.687 2113.58 36.611C2112.51 37.535 2111.09 37.997 2109.33 37.997C2109.1 37.997 2108.85 37.9897 2108.58 37.975C2108.33 37.9603 2108.08 37.9457 2107.81 37.931C2106.96 37.8577 2106.21 37.821 2105.55 37.821L2102.56 37.821L2102.56 36.743L2104.4 36.523L2104.4 22.817L2102.62 22.531L2102.62 21.475L2108.89 21.475L2108.89 22.531L2106.74 22.817L2106.74 27.921L2109.64 27.899ZM2123.46 21.475L2123.46 22.575L2121.41 22.839L2121.41 36.523L2123.46 36.765L2123.46 37.821L2116.99 37.821L2116.99 36.743L2119.03 36.523L2119.03 22.839L2116.99 22.575L2116.99 21.475L2123.46 21.475ZM2106.74 36.611C2107.12 36.6843 2107.45 36.7357 2107.73 36.765C2108.02 36.7943 2108.41 36.809 2108.91 36.809C2110.15 36.809 2111.08 36.4643 2111.73 35.775C2112.39 35.0857 2112.72 34.103 2112.72 32.827C2112.72 31.6097 2112.4 30.7003 2111.75 30.099C2111.11 29.483 2110.18 29.175 2108.98 29.175L2106.74 29.197L2106.74 36.611ZM2127.48 22.839L2125.67 22.575L2125.67 21.475L2136.87 21.475L2137.18 24.885L2135.92 24.885L2135.29 22.751L2129.83 22.619L2129.83 28.823L2133.5 28.757L2133.81 26.931L2135.02 26.931L2135.02 31.991L2133.81 31.991L2133.5 30.099L2129.83 30.033L2129.83 36.589L2136.03 36.369L2137.2 33.597L2138.5 33.993L2137.86 37.821L2125.65 37.821L2125.65 36.743L2127.48 36.523L2127.48 22.839ZM2145.82 22.003C2146.05 21.9883 2146.52 21.9003 2147.23 21.739C2147.89 21.5923 2148.45 21.4823 2148.92 21.409C2149.39 21.3357 2149.84 21.299 2150.28 21.299C2152.12 21.299 2153.52 21.607 2154.51 22.223C2155.49 22.839 2155.98 23.7703 2155.98 25.017C2155.98 26.1903 2155.61 27.129 2154.86 27.833C2154.13 28.537 2153.24 28.9917 2152.2 29.197C2153.56 29.2263 2154.61 29.6003 2155.34 30.319C2156.09 31.023 2156.47 31.925 2156.47 33.025C2156.47 34.609 2155.97 35.8263 2154.99 36.677C2154.02 37.5277 2152.48 37.953 2150.35 37.953C2149.47 37.953 2148.69 37.8797 2148.02 37.733C2147.34 37.5863 2146.81 37.4543 2146.41 37.337C2146.03 37.205 2145.8 37.1243 2145.71 37.095L2146.1 33.289L2147.2 33.289L2147.82 36.149C2148.52 36.5303 2149.51 36.721 2150.77 36.721C2151.75 36.721 2152.49 36.4277 2152.99 35.841C2153.5 35.2543 2153.76 34.3743 2153.76 33.201C2153.76 32.2917 2153.49 31.529 2152.95 30.913C2152.4 30.297 2151.47 29.989 2150.15 29.989L2148.61 29.989L2148.61 28.757L2149.89 28.757C2150.5 28.757 2151.08 28.6323 2151.63 28.383C2152.18 28.1337 2152.63 27.7523 2152.97 27.239C2153.3 26.711 2153.47 26.073 2153.47 25.325C2153.47 24.3423 2153.19 23.6237 2152.64 23.169C2152.09 22.7143 2151.34 22.487 2150.37 22.487C2149.73 22.487 2149.18 22.5677 2148.72 22.729C2148.28 22.8903 2147.99 23.0957 2147.84 23.345L2147.42 25.391L2146.04 25.391L2145.82 22.003ZM2163.95 21.343L2166.37 21.343L2171.72 36.523L2173.08 36.743L2173.08 37.821L2167.28 37.821L2167.28 36.743L2169.1 36.523L2168.07 33.267L2161.64 33.267L2160.61 36.523L2162.5 36.743L2162.5 37.821L2157.29 37.821L2157.29 36.743L2158.65 36.523L2163.95 21.343ZM2165.34 24.863L2164.79 22.927L2164.26 24.907L2162.04 31.969L2167.65 31.969L2165.34 24.863ZM2181.12 38.063C2179.51 38.063 2178.13 37.7183 2176.99 37.029C2175.86 36.325 2175 35.3423 2174.41 34.081C2173.83 32.8197 2173.53 31.3383 2173.53 29.637C2173.53 27.9943 2173.88 26.5423 2174.57 25.281C2175.26 24.0197 2176.2 23.0443 2177.4 22.355C2178.61 21.651 2179.96 21.299 2181.45 21.299C2182.58 21.299 2183.94 21.475 2185.52 21.827L2186.25 21.959L2186.03 25.919L2184.55 25.919L2184 23.125C2183.8 22.949 2183.44 22.8023 2182.93 22.685C2182.43 22.553 2181.81 22.487 2181.08 22.487C2180.14 22.487 2179.3 22.7583 2178.57 23.301C2177.84 23.829 2177.26 24.6137 2176.83 25.655C2176.42 26.6963 2176.22 27.943 2176.22 29.395C2176.22 30.7737 2176.4 32.0277 2176.77 33.157C2177.13 34.2863 2177.69 35.1883 2178.44 35.863C2179.19 36.523 2180.11 36.853 2181.21 36.853C2181.99 36.853 2182.58 36.787 2182.99 36.655C2183.42 36.523 2183.78 36.3323 2184.07 36.083L2184.99 33.927L2186.38 34.103L2185.85 37.227C2185.54 37.2417 2185.09 37.3443 2184.49 37.535C2183.96 37.6963 2183.45 37.821 2182.95 37.909C2182.46 38.0117 2181.86 38.063 2181.12 38.063ZM2190.02 22.839L2188.21 22.575L2188.21 21.475L2199.41 21.475L2199.72 24.885L2198.47 24.885L2197.83 22.751L2192.37 22.619L2192.37 28.823L2196.05 28.757L2196.35 26.931L2197.56 26.931L2197.56 31.991L2196.35 31.991L2196.05 30.099L2192.37 30.033L2192.37 36.589L2198.58 36.369L2199.74 33.597L2201.04 33.993L2200.4 37.821L2188.19 37.821L2188.19 36.743L2190.02 36.523L2190.02 22.839ZM2216.65 36.501C2216.65 36.6917 2216.57 37.6303 2216.4 39.317C2216.24 41.0037 2216.15 41.869 2216.14 41.913L2214.73 41.913C2214.7 41.3703 2214.64 40.5783 2214.53 39.537C2214.45 38.4957 2214.38 37.9237 2214.34 37.821L2204.28 37.821C2204.22 37.8797 2204.08 38.437 2203.84 39.493C2203.62 40.549 2203.45 41.363 2203.34 41.935L2201.91 41.935C2201.92 41.3483 2201.95 40.4683 2201.99 39.295C2202.05 38.1363 2202.1 37.205 2202.15 36.501L2203.75 36.501C2204.11 36.061 2204.49 35.3423 2204.9 34.345C2205.32 33.333 2205.7 31.969 2206.04 30.253C2206.38 28.5223 2206.55 26.4983 2206.55 24.181L2206.55 22.839L2204.28 22.575L2204.28 21.475L2216.73 21.475L2216.73 22.575L2214.67 22.839L2214.67 36.501L2216.65 36.501ZM2207.91 24.313C2207.93 26.3957 2207.8 28.2877 2207.54 29.989C2207.27 31.6757 2206.96 33.069 2206.59 34.169C2206.24 35.269 2205.92 36.0463 2205.62 36.501L2212.33 36.501L2212.36 22.751L2207.91 22.751L2207.91 24.313ZM2224.05 21.343L2226.47 21.343L2231.81 36.523L2233.18 36.743L2233.18 37.821L2227.37 37.821L2227.37 36.743L2229.19 36.523L2228.16 33.267L2221.74 33.267L2220.7 36.523L2222.59 36.743L2222.59 37.821L2217.38 37.821L2217.38 36.743L2218.74 36.523L2224.05 21.343ZM2225.43 24.863L2224.88 22.927L2224.35 24.907L2222.13 31.969L2227.74 31.969L2225.43 24.863ZM2239.28 22.641L2235.49 22.773L2234.72 27.371L2233.27 27.371L2233.65 21.475L2247.35 21.475L2247.62 27.371L2246.23 27.371L2245.5 22.773L2241.7 22.641L2241.7 36.523L2244.82 36.743L2244.82 37.821L2236.42 37.821L2236.42 36.743L2239.28 36.523L2239.28 22.641ZM2250.97 22.839L2249.16 22.575L2249.16 21.475L2260.36 21.475L2260.67 24.885L2259.42 24.885L2258.78 22.751L2253.32 22.619L2253.32 28.823L2257 28.757L2257.3 26.931L2258.51 26.931L2258.51 31.991L2257.3 31.991L2257 30.099L2253.32 30.033L2253.32 36.589L2259.53 36.369L2260.69 33.597L2261.99 33.993L2261.35 37.821L2249.14 37.821L2249.14 36.743L2250.97 36.523L2250.97 22.839ZM2268.97 24.819C2268.97 27.459 2268.82 29.791 2268.51 31.815C2268.22 33.8243 2267.77 35.3497 2267.17 36.391C2266.86 36.919 2266.51 37.3077 2266.11 37.557C2265.72 37.8063 2265.25 37.931 2264.71 37.931C2264 37.931 2263.48 37.8943 2263.14 37.821L2262.99 36.039C2263.33 36.083 2263.88 36.105 2264.64 36.105C2264.92 36.105 2265.16 36.0463 2265.36 35.929C2265.57 35.797 2265.76 35.577 2265.94 35.269C2267.05 33.5383 2267.61 29.9743 2267.61 24.577L2267.61 22.839L2265.08 22.575L2265.08 21.475L2277.79 21.475L2277.79 22.575L2275.75 22.839L2275.75 36.523L2277.93 36.743L2277.93 37.821L2271.15 37.821L2271.15 36.743L2273.42 36.501L2273.44 22.839L2268.97 22.839L2268.97 24.819ZM2286.03 21.475L2286.03 22.575L2283.87 22.839L2283.87 33.883L2285.68 31.177L2292.01 23.433L2292.01 22.839L2290.06 22.575L2290.06 21.475L2296.11 21.475L2296.11 22.575L2294.35 22.839L2294.35 36.523L2296.22 36.743L2296.22 37.821L2290.08 37.821L2290.08 36.743L2292.01 36.523L2292.01 25.325L2290.39 27.877L2283.87 35.731L2283.87 36.523L2285.94 36.743L2285.94 37.821L2279.74 37.821L2279.74 36.743L2281.56 36.523L2281.56 22.839L2279.8 22.575L2279.8 21.475L2286.03 21.475ZM2301.73 32.585L2300.32 32.585L2299.66 18.395L2302.35 18.395L2301.73 32.585ZM2299.58 36.655C2299.58 36.215 2299.75 35.841 2300.08 35.533C2300.42 35.225 2300.8 35.071 2301.23 35.071C2301.7 35.071 2302.06 35.203 2302.3 35.467C2302.55 35.731 2302.68 36.061 2302.68 36.457C2302.68 36.9263 2302.51 37.3077 2302.17 37.601C2301.85 37.8943 2301.45 38.041 2300.98 38.041C2300.6 38.041 2300.27 37.9163 2299.99 37.667C2299.72 37.403 2299.58 37.0657 2299.58 36.655Z" fill="#FFFFFF" fill-opacity="1.000000" fill-rule="evenodd"/>
	<circle id="Ellipse 11" cx="2320.000000" cy="30.000000" r="3.000000" fill="#FFFFFF" fill-opacity="1.000000"/>
</svg>
